<svg width="16" height="16" viewBox="0 0 16 16" fill="none" xmlns="http://www.w3.org/2000/svg">
<path d="M8.5 0.0117188L4 1.81152V7.0455L1 8.20761V12.7301L8.5 15.9439L16 12.7301V8.20761L13 7.0455V1.81152L8.5 0.0117188ZM8.5 11.0064L2.82471 8.57371L4.00165 8.11778L8.5 9.9918L12.9984 8.11778L14.1753 8.57371L8.5 11.0064ZM8 3.99701V8.6995L5 7.44962V2.87164L8 3.99701ZM9 3.99701L12 2.87164V7.44962L9 8.6995V3.99701ZM11.1163 2.13544L8.5 3.11621L5.88373 2.13544L8.5 1.08789L11.1163 2.13544ZM2 9.30912L8 11.8801V14.6418L2 12.0699V9.30912ZM9 14.6418V11.8801L15 9.30912V12.0699L9 14.6418Z" fill="#DDDDDD"/>
</svg>
