<svg width="24" height="24" viewBox="0 0 24 24" fill="none" xmlns="http://www.w3.org/2000/svg">
<path d="M11.976 0C5.34551 0 0 5.38282 0 12C0 18.6172 5.34551 24 11.976 24C18.6064 24 24 18.6172 24 12C24 5.38282 18.6064 0 11.976 0ZM12.7776 1.64053C13.3753 1.68634 13.9571 1.78467 14.5225 1.92725L12.7776 3.66875V1.64053ZM12.7776 5.93125L16.2097 2.50595C17.1347 2.91854 17.9877 3.46054 18.7473 4.11093L12.7776 10.0687V5.93125ZM19.8808 5.24219C20.5325 6.0003 21.0756 6.85157 21.489 7.7747L18.0569 11.2H13.9111L19.8808 5.24219ZM22.0689 9.4585C22.2118 10.0228 22.3103 10.6034 22.3562 11.2H20.3239L22.0689 9.4585ZM11.976 22.4C6.23009 22.4 1.55511 17.7344 1.55511 12C1.55511 6.53565 5.80277 2.05166 11.1743 1.64053V12.752H22.3562C21.9442 18.1128 17.4513 22.4 11.976 22.4Z" fill="white"/>
</svg>
