<svg width="39" height="19" viewBox="0 0 39 19" fill="none" xmlns="http://www.w3.org/2000/svg">
<g clip-path="url(#clip0_1823_29597)">
<path d="M29.7672 16.0519L34.6422 10.1202C34.7104 10.0376 34.7645 9.93935 34.8014 9.8312C34.8383 9.72305 34.8573 9.6071 34.8573 9.48999C34.8573 9.37289 34.8383 9.25694 34.8014 9.14878C34.7645 9.04063 34.7104 8.94241 34.6422 8.85975L29.7672 2.92805C29.6298 2.7609 29.4435 2.66699 29.2492 2.66699C29.055 2.66699 28.8686 2.7609 28.7313 2.92805C28.5939 3.0952 28.5167 3.3219 28.5167 3.55829C28.5167 3.79468 28.5939 4.02138 28.7313 4.18853L33.0889 9.49073L28.7307 14.7929C28.5933 14.9601 28.5161 15.1868 28.5161 15.4232C28.5161 15.6596 28.5933 15.8863 28.7307 16.0534C28.868 16.2206 29.0544 16.3145 29.2486 16.3145C29.4429 16.3145 29.6292 16.2206 29.7666 16.0534L29.7672 16.0519Z" fill="white"/>
</g>
<g clip-path="url(#clip1_1823_29597)">
<path d="M21.9674 16.0519L26.8424 10.1202C26.9106 10.0376 26.9647 9.93935 27.0016 9.8312C27.0385 9.72305 27.0575 9.6071 27.0575 9.48999C27.0575 9.37289 27.0385 9.25694 27.0016 9.14878C26.9647 9.04063 26.9106 8.94241 26.8424 8.85975L21.9674 2.92805C21.83 2.7609 21.6437 2.66699 21.4494 2.66699C21.2552 2.66699 21.0688 2.7609 20.9315 2.92805C20.7941 3.0952 20.7169 3.3219 20.7169 3.55829C20.7169 3.79468 20.7941 4.02138 20.9315 4.18853L25.2891 9.49073L20.9309 14.7929C20.7935 14.9601 20.7163 15.1868 20.7163 15.4232C20.7163 15.6596 20.7935 15.8863 20.9309 16.0534C21.0682 16.2206 21.2546 16.3145 21.4488 16.3145C21.6431 16.3145 21.8294 16.2206 21.9668 16.0534L21.9674 16.0519Z" fill="white"/>
</g>
<g clip-path="url(#clip2_1823_29597)">
<path d="M14.1674 16.0519L19.0424 10.1202C19.1105 10.0376 19.1646 9.93935 19.2015 9.8312C19.2384 9.72305 19.2574 9.6071 19.2574 9.48999C19.2574 9.37289 19.2384 9.25694 19.2015 9.14878C19.1646 9.04063 19.1105 8.94241 19.0424 8.85975L14.1674 2.92805C14.03 2.7609 13.8437 2.66699 13.6494 2.66699C13.4551 2.66699 13.2688 2.7609 13.1314 2.92805C12.994 3.0952 12.9169 3.3219 12.9169 3.55829C12.9169 3.79468 12.994 4.02138 13.1314 4.18853L17.4891 9.49073L13.1308 14.7929C12.9934 14.9601 12.9163 15.1868 12.9163 15.4232C12.9163 15.6596 12.9934 15.8863 13.1308 16.0534C13.2682 16.2206 13.4545 16.3145 13.6488 16.3145C13.8431 16.3145 14.0294 16.2206 14.1667 16.0534L14.1674 16.0519Z" fill="white"/>
</g>
<g clip-path="url(#clip3_1823_29597)">
<path d="M6.36731 16.0519L11.2423 10.1202C11.3105 10.0376 11.3646 9.93935 11.4015 9.8312C11.4384 9.72305 11.4574 9.6071 11.4574 9.48999C11.4574 9.37289 11.4384 9.25694 11.4015 9.14878C11.3646 9.04063 11.3105 8.94241 11.2423 8.85975L6.36731 2.92805C6.22993 2.7609 6.04361 2.66699 5.84934 2.66699C5.65506 2.66699 5.46874 2.7609 5.33137 2.92805C5.194 3.0952 5.11682 3.3219 5.11682 3.55829C5.11682 3.79468 5.194 4.02138 5.33137 4.18853L9.68901 9.49073L5.33076 14.7929C5.19339 14.9601 5.11621 15.1868 5.11621 15.4232C5.11621 15.6596 5.19339 15.8863 5.33076 16.0534C5.46814 16.2206 5.65446 16.3145 5.84873 16.3145C6.04301 16.3145 6.22933 16.2206 6.3667 16.0534L6.36731 16.0519Z" fill="white"/>
</g>
<defs>
<clipPath id="clip0_1823_29597">
<rect width="18.9814" height="15.6" fill="white" transform="matrix(2.0197e-07 1 1 -9.46023e-09 23.3999 0)"/>
</clipPath>
<clipPath id="clip1_1823_29597">
<rect width="18.9814" height="15.6" fill="white" transform="matrix(2.0197e-07 1 1 -9.46023e-09 15.6001 0)"/>
</clipPath>
<clipPath id="clip2_1823_29597">
<rect width="18.9814" height="15.6" fill="white" transform="matrix(2.0197e-07 1 1 -9.46023e-09 7.80005 0)"/>
</clipPath>
<clipPath id="clip3_1823_29597">
<rect width="18.9814" height="15.6" fill="white" transform="matrix(2.0197e-07 1 1 -9.46023e-09 0 0)"/>
</clipPath>
</defs>
</svg>
