<svg width="16" height="16" viewBox="0 0 16 16" fill="none" xmlns="http://www.w3.org/2000/svg">
<g clip-path="url(#clip0_561_8335)">
<path fill-rule="evenodd" clip-rule="evenodd" d="M4.7352 9.3462L5.4732 8.6082L7.5572 10.6962L12.3272 5.9262L13.0652 6.6632L7.5572 12.1682L4.7352 9.3462ZM15.8002 8.5002C15.8002 12.5319 12.5319 15.8002 8.5002 15.8002C4.46852 15.8002 1.2002 12.5319 1.2002 8.5002C1.2002 4.46852 4.46852 1.2002 8.5002 1.2002C12.5319 1.2002 15.8002 4.46852 15.8002 8.5002ZM14.8002 8.5002C14.8002 5.0208 11.9796 2.2002 8.5002 2.2002C5.0208 2.2002 2.2002 5.0208 2.2002 8.5002C2.2002 11.9796 5.0208 14.8002 8.5002 14.8002C11.978 14.7963 14.7963 11.978 14.8002 8.5002Z" fill="#35AC46"/>
</g>
<defs>
<clipPath id="clip0_561_8335">
<rect width="16" height="16" fill="white"/>
</clipPath>
</defs>
</svg>
