<svg width="42" height="43" viewBox="0 0 42 43" fill="none" xmlns="http://www.w3.org/2000/svg">
<g filter="url(#filter0_d_3810_47618)">
<rect x="4" y="3" width="34" height="34.0692" rx="5" fill="white"/>
<rect x="4.5" y="3.5" width="33" height="33.0692" rx="4.5" stroke="white"/>
</g>
<g clip-path="url(#clip0_3810_47618)">
<path fill-rule="evenodd" clip-rule="evenodd" d="M23.7803 8.98184C24.0732 9.27533 24.0732 9.75117 23.7803 10.0447L21.3107 12.5194L23.7803 14.9941C24.0732 15.2875 24.0732 15.7634 23.7803 16.0569C23.4874 16.3504 23.0126 16.3504 22.7197 16.0569L19.7197 13.0508C19.4268 12.7573 19.4268 12.2814 19.7197 11.9879L22.7197 8.98184C23.0126 8.68835 23.4874 8.68835 23.7803 8.98184Z" fill="#32A2A6"/>
<path fill-rule="evenodd" clip-rule="evenodd" d="M18.1728 24.0121C18.4657 23.7186 18.9406 23.7186 19.2335 24.0121L22.2335 27.0182C22.5263 27.3117 22.5263 27.7875 22.2335 28.081L19.2335 31.0871C18.9406 31.3806 18.4657 31.3806 18.1728 31.0871C17.8799 30.7937 17.8799 30.3178 18.1728 30.0243L20.6425 27.5496L18.1728 25.0749C17.8799 24.7814 17.8799 24.3056 18.1728 24.0121Z" fill="#32A2A6"/>
<path fill-rule="evenodd" clip-rule="evenodd" d="M14.25 11.0158C13.4216 11.0158 12.75 11.6887 12.75 12.5188C12.75 13.3489 13.4216 14.0219 14.25 14.0219C15.0784 14.0219 15.75 13.3489 15.75 12.5188C15.75 11.6887 15.0784 11.0158 14.25 11.0158ZM11.25 12.5188C11.25 10.8586 12.5931 9.5127 14.25 9.5127C15.9069 9.5127 17.25 10.8586 17.25 12.5188C17.25 14.179 15.9069 15.5249 14.25 15.5249C12.5931 15.5249 11.25 14.179 11.25 12.5188Z" fill="#32A2A6"/>
<path fill-rule="evenodd" clip-rule="evenodd" d="M27.75 26.046C26.9216 26.046 26.25 26.719 26.25 27.5491C26.25 28.3792 26.9216 29.0521 27.75 29.0521C28.5784 29.0521 29.25 28.3792 29.25 27.5491C29.25 26.719 28.5784 26.046 27.75 26.046ZM24.75 27.5491C24.75 25.8888 26.0931 24.543 27.75 24.543C29.4069 24.543 30.75 25.8888 30.75 27.5491C30.75 29.2093 29.4069 30.5552 27.75 30.5552C26.0931 30.5552 24.75 29.2093 24.75 27.5491Z" fill="#32A2A6"/>
<path fill-rule="evenodd" clip-rule="evenodd" d="M20.25 12.5191C20.25 12.104 20.5858 11.7676 21 11.7676H24.9375C25.8823 11.7676 26.7885 12.1437 27.4566 12.8131C28.1247 13.4826 28.5 14.3906 28.5 15.3373V25.2951C28.5 25.7101 28.1642 26.0466 27.75 26.0466C27.3358 26.0466 27 25.7101 27 25.2951V15.3373C27 14.7892 26.7827 14.2635 26.3959 13.876C26.0091 13.4884 25.4845 13.2706 24.9375 13.2706H21C20.5858 13.2706 20.25 12.9342 20.25 12.5191Z" fill="#32A2A6"/>
<path fill-rule="evenodd" clip-rule="evenodd" d="M14.2031 14.0225C14.6173 14.0225 14.9531 14.3589 14.9531 14.774V24.7317C14.9531 25.2799 15.1704 25.8055 15.5572 26.1931C15.944 26.5807 16.4686 26.7984 17.0156 26.7984H20.9531C21.3673 26.7984 21.7031 27.1349 21.7031 27.55C21.7031 27.965 21.3673 28.3015 20.9531 28.3015H17.0156C16.0708 28.3015 15.1647 27.9254 14.4966 27.2559C13.8285 26.5865 13.4531 25.6785 13.4531 24.7317V14.774C13.4531 14.3589 13.7889 14.0225 14.2031 14.0225Z" fill="#32A2A6"/>
</g>
<defs>
<filter id="filter0_d_3810_47618" x="0" y="0" width="42" height="42.0693" filterUnits="userSpaceOnUse" color-interpolation-filters="sRGB">
<feFlood flood-opacity="0" result="BackgroundImageFix"/>
<feColorMatrix in="SourceAlpha" type="matrix" values="0 0 0 0 0 0 0 0 0 0 0 0 0 0 0 0 0 0 127 0" result="hardAlpha"/>
<feOffset dy="1"/>
<feGaussianBlur stdDeviation="2"/>
<feComposite in2="hardAlpha" operator="out"/>
<feColorMatrix type="matrix" values="0 0 0 0 0 0 0 0 0 0 0 0 0 0 0 0 0 0 0.25 0"/>
<feBlend mode="normal" in2="BackgroundImageFix" result="effect1_dropShadow_3810_47618"/>
<feBlend mode="normal" in="SourceGraphic" in2="effect1_dropShadow_3810_47618" result="shape"/>
</filter>
<clipPath id="clip0_3810_47618">
<rect width="24" height="24.0489" fill="white" transform="translate(9 8.00977)"/>
</clipPath>
</defs>
</svg>
