<svg width="66" height="66" viewBox="0 0 66 66" fill="none" xmlns="http://www.w3.org/2000/svg">
<path fill-rule="evenodd" clip-rule="evenodd" d="M8.22937 61.8749H61.8956C63.2339 61.874 64.4765 61.181 65.1804 60.0428C65.8843 58.9046 65.9494 57.4832 65.3524 56.2855L38.445 2.14489C37.8266 0.836752 36.5094 0.00244141 35.0625 0.00244141C33.6156 0.00244141 32.2984 0.836752 31.68 2.14489L4.77262 56.2855C4.1756 57.4832 4.24065 58.9046 4.94457 60.0428C5.64848 61.181 6.89109 61.874 8.22937 61.8749ZM35.145 4.45489L61.4707 57.7499H8.65424L35.145 4.45489ZM39.171 47.3384V47.5364C39.171 49.8146 37.3242 51.6614 35.046 51.6614C32.7678 51.6614 30.921 49.8146 30.921 47.5364V47.3384C30.921 45.0602 32.7678 43.2134 35.046 43.2134C37.3242 43.2134 39.171 45.0602 39.171 47.3384ZM37.1044 37.1249H33.0742V20.6249H37.1044V37.1249Z" fill="#D83020"/>
</svg>
