<svg width="32" height="32" viewBox="0 0 32 32" fill="none" xmlns="http://www.w3.org/2000/svg">
<g clip-path="url(#clip0_2644_22753)">
<path d="M6.66671 15.9998H6.68004M16 15.9998H16.0134M25.3334 15.9998H25.3467M8.00004 15.9998C8.00004 16.7362 7.40309 17.3332 6.66671 17.3332C5.93033 17.3332 5.33337 16.7362 5.33337 15.9998C5.33337 15.2635 5.93033 14.6665 6.66671 14.6665C7.40309 14.6665 8.00004 15.2635 8.00004 15.9998ZM17.3334 15.9998C17.3334 16.7362 16.7364 17.3332 16 17.3332C15.2637 17.3332 14.6667 16.7362 14.6667 15.9998C14.6667 15.2635 15.2637 14.6665 16 14.6665C16.7364 14.6665 17.3334 15.2635 17.3334 15.9998ZM26.6667 15.9998C26.6667 16.7362 26.0698 17.3332 25.3334 17.3332C24.597 17.3332 24 16.7362 24 15.9998C24 15.2635 24.597 14.6665 25.3334 14.6665C26.0698 14.6665 26.6667 15.2635 26.6667 15.9998Z" stroke="#0D7C85" stroke-width="2" stroke-linecap="round" stroke-linejoin="round"/>
</g>
<defs>
<clipPath id="clip0_2644_22753">
<rect width="32" height="32" fill="white"/>
</clipPath>
</defs>
</svg>
