<svg width="18" height="18" viewBox="0 0 18 18" fill="none" xmlns="http://www.w3.org/2000/svg">
<g clip-path="url(#clip0_553_6902)">
<path d="M8.1375 2.95898H2.95905C2.56665 2.95898 2.19032 3.11487 1.91284 3.39234C1.63537 3.66981 1.47949 4.04614 1.47949 4.43854V14.7954C1.47949 15.1878 1.63537 15.5642 1.91284 15.8416C2.19032 16.1191 2.56665 16.275 2.95905 16.275H13.316C13.7084 16.275 14.0847 16.1191 14.3622 15.8416C14.6396 15.5642 14.7955 15.1878 14.7955 14.7954V9.61699" stroke="#00619B" stroke-width="1.5" stroke-linecap="round" stroke-linejoin="round"/>
<path d="M13.6859 1.84929C13.9802 1.55499 14.3794 1.38965 14.7956 1.38965C15.2118 1.38965 15.6109 1.55499 15.9052 1.84929C16.1995 2.14359 16.3649 2.54275 16.3649 2.95896C16.3649 3.37516 16.1995 3.77432 15.9052 4.06862L8.87733 11.0965L5.91821 11.8363L6.65799 8.87719L13.6859 1.84929Z" stroke="#00619B" stroke-width="1.5" stroke-linecap="round" stroke-linejoin="round"/>
</g>
<defs>
<clipPath id="clip0_553_6902">
<rect width="17.7547" height="17.7547" fill="white"/>
</clipPath>
</defs>
</svg>
