<svg width="17" height="17" viewBox="0 0 17 17" fill="none" xmlns="http://www.w3.org/2000/svg">
<path d="M10.9017 10.9017C10.5534 11.2499 10.14 11.5261 9.68507 11.7146C9.2301 11.903 8.74246 12 8.25 12C7.75754 12 7.2699 11.903 6.81493 11.7146C6.35995 11.5261 5.94655 11.2499 5.59833 10.9017M15.75 8.25C15.75 9.23491 15.556 10.2102 15.1791 11.1201C14.8022 12.0301 14.2497 12.8569 13.5533 13.5533C12.8569 14.2497 12.0301 14.8022 11.1201 15.1791C10.2102 15.556 9.23491 15.75 8.25 15.75C7.26509 15.75 6.28982 15.556 5.37987 15.1791C4.46993 14.8022 3.64314 14.2497 2.9467 13.5533C2.25026 12.8569 1.69781 12.0301 1.3209 11.1201C0.943993 10.2102 0.75 9.23491 0.75 8.25C0.75 6.26088 1.54018 4.35322 2.9467 2.9467C4.35322 1.54018 6.26088 0.75 8.25 0.75C10.2391 0.75 12.1468 1.54018 13.5533 2.9467C14.9598 4.35322 15.75 6.26088 15.75 8.25ZM6.375 6.375C6.375 6.72 6.235 7 6.0625 7C5.89 7 5.75 6.72 5.75 6.375C5.75 6.03 5.89 5.75 6.0625 5.75C6.235 5.75 6.375 6.03 6.375 6.375ZM6.0625 6.375H6.06917V6.3875H6.0625V6.375ZM10.75 6.375C10.75 6.72 10.61 7 10.4375 7C10.265 7 10.125 6.72 10.125 6.375C10.125 6.03 10.265 5.75 10.4375 5.75C10.61 5.75 10.75 6.03 10.75 6.375ZM10.4375 6.375H10.4442V6.3875H10.4375V6.375Z" stroke="black" stroke-width="1.5" stroke-linecap="round" stroke-linejoin="round"/>
</svg>
