<svg width="23" height="21" viewBox="0 0 23 21" fill="none" xmlns="http://www.w3.org/2000/svg">
<path d="M21.6652 7.42308H14.4415L12.2464 1.00962C12.1384 0.697115 11.8388 0.5 11.5 0.5C11.1612 0.5 10.8616 0.697115 10.7536 1.00962L8.55848 7.42308H1.28571C0.853572 7.42308 0.5 7.76923 0.5 8.19231C0.5 8.23558 0.504911 8.28365 0.514732 8.32212C0.524554 8.49038 0.603125 8.67789 0.84375 8.86538L6.7808 12.9615L4.50223 19.4471C4.38929 19.7596 4.50223 20.1106 4.77232 20.3125C4.91473 20.4135 5.04732 20.5 5.21429 20.5C5.37634 20.5 5.56786 20.4183 5.70536 20.3269L11.5 16.2837L17.2946 20.3269C17.4321 20.4231 17.6237 20.5 17.7857 20.5C17.9527 20.5 18.0853 20.4183 18.2228 20.3125C18.4978 20.1106 18.6058 19.7644 18.4929 19.4471L16.2143 12.9615L22.1022 8.82692L22.2446 8.70673C22.3723 8.57211 22.5 8.38942 22.5 8.19231C22.5 7.76923 22.0973 7.42308 21.6652 7.42308Z" fill="#E3E3E3" stroke="#BEBEBE"/>
</svg>
