<svg width="32" height="32" viewBox="0 0 32 32" fill="none" xmlns="http://www.w3.org/2000/svg">
<g clip-path="url(#clip0_3059_25207)">
<path d="M31.461 15.7305C31.461 7.04287 24.4182 0 15.7305 0C7.04287 0 0 7.04287 0 15.7305C0 23.1075 5.07907 29.2978 11.9307 30.9979V20.5378H8.68702V15.7305H11.9307V13.6591C11.9307 8.30509 14.3538 5.82344 19.6103 5.82344C20.607 5.82344 22.3266 6.01913 23.0301 6.21418V10.5715C22.6589 10.5325 22.0139 10.513 21.2129 10.513C18.6337 10.513 17.6371 11.4902 17.6371 14.0304V15.7305H22.7753L21.8925 20.5378H17.6371V31.3459C25.4262 30.4052 31.4617 23.7732 31.4617 15.7305H31.461Z" fill="#0866FF"/>
<path d="M21.892 20.5376L22.7748 15.7303H17.6366V14.0302C17.6366 11.49 18.6332 10.5128 21.2124 10.5128C22.0134 10.5128 22.6584 10.5323 23.0296 10.5713V6.21399C22.3261 6.0183 20.6065 5.82324 19.6098 5.82324C14.3533 5.82324 11.9302 8.30489 11.9302 13.6589V15.7303H8.68652V20.5376H11.9302V30.9977C13.1471 31.2998 14.42 31.4608 15.73 31.4608C16.375 31.4608 17.0111 31.4212 17.6359 31.3457V20.5376H21.8913H21.892Z" fill="white"/>
</g>
<defs>
<clipPath id="clip0_3059_25207">
<rect width="31.461" height="31.461" fill="white"/>
</clipPath>
</defs>
</svg>
