<svg width="28" height="28" viewBox="0 0 28 28" fill="none" xmlns="http://www.w3.org/2000/svg">
<path d="M3.5 23.8V4.2C3.5 3.8134 3.8134 3.5 4.2 3.5H23.8C24.1866 3.5 24.5 3.8134 24.5 4.2V23.8C24.5 24.1866 24.1866 24.5 23.8 24.5H4.2C3.8134 24.5 3.5 24.1866 3.5 23.8Z" stroke="white" stroke-width="1.5"/>
<path d="M14 19.1229V21.5834M17.5 9.91675C16.7008 9.11759 15.2935 8.56172 14 8.52692L17.5 9.91675ZM10.5 17.5001C11.2519 18.5026 12.6499 19.0744 14 19.1229L10.5 17.5001ZM14 8.52692C12.461 8.4855 11.0833 9.18172 11.0833 11.0834C11.0833 14.5834 17.5 12.8334 17.5 16.3334C17.5 18.3296 15.7922 19.1873 14 19.1229V8.52692ZM14 8.52692V6.41675V8.52692Z" stroke="white" stroke-width="1.5" stroke-linecap="round" stroke-linejoin="round"/>
</svg>
