<svg width="16" height="16" viewBox="0 0 16 16" fill="none" xmlns="http://www.w3.org/2000/svg">
<path fill-rule="evenodd" clip-rule="evenodd" d="M4 9.99994V11.9999C4 12.5522 4.44772 12.9999 5 12.9999H8C8.55228 12.9999 9 12.5522 9 11.9999V11.5359L12.886 13.7799C13.3223 14.0314 13.8596 14.031 14.2956 13.779C14.7316 13.527 15.0001 13.0615 15 12.5579V3.44194C15.0001 2.93835 14.7316 2.47292 14.2956 2.22089C13.8596 1.96886 13.3223 1.9685 12.886 2.21994C6.136 6.11694 9.668 4.07994 6.571 5.86694C6.419 5.95464 6.24648 6.00052 6.071 5.99994H2C1.44772 5.99994 1 6.44766 1 6.99994V8.99994C1 9.55223 1.44772 9.99994 2 9.99994H6.071C6.24648 9.99936 6.419 10.0453 6.571 10.1329L8 10.9579V11.9999H5V9.99994H4ZM6.071 8.99994H2.01L2 6.99994H6.071C6.42199 7.00023 6.76687 6.90815 7.071 6.73294L13.387 3.08694C13.4486 3.05088 13.5186 3.03189 13.59 3.03194C13.6619 3.03233 13.7325 3.05128 13.795 3.08694C13.9215 3.16047 13.9996 3.2956 14 3.44194V12.5579C13.9996 12.7043 13.9215 12.8394 13.795 12.9129C13.7325 12.9486 13.6619 12.9676 13.59 12.9679C13.5191 12.968 13.4494 12.9494 13.388 12.9139L7.07 9.26694C6.76616 9.09191 6.42165 8.99983 6.071 8.99994Z" fill="#DDDDDD"/>
</svg>
