<svg width="16" height="16" viewBox="0 0 16 16" fill="none" xmlns="http://www.w3.org/2000/svg">
<path d="M8 6.79995C7.44621 6.79995 6.90486 6.63574 6.4444 6.32807C5.98395 6.0204 5.62506 5.5831 5.41314 5.07147C5.20121 4.55983 5.14576 3.99685 5.2538 3.4537C5.36184 2.91055 5.62851 2.41164 6.0201 2.02005C6.41169 1.62847 6.9106 1.36179 7.45375 1.25375C7.99689 1.14572 8.55988 1.20116 9.07151 1.41309C9.58315 1.62502 10.0204 1.9839 10.3281 2.44436C10.6358 2.90481 10.8 3.44616 10.8 3.99995C10.7992 4.74231 10.504 5.45404 9.97902 5.97897C9.45409 6.5039 8.74236 6.79916 8 6.79995ZM8 2.13295C7.63074 2.13295 7.26978 2.24245 6.96275 2.4476C6.65572 2.65275 6.41643 2.94433 6.27512 3.28548C6.13381 3.62663 6.09684 4.00202 6.16887 4.36419C6.24091 4.72635 6.41873 5.05902 6.67983 5.32012C6.94094 5.58123 7.2736 5.75904 7.63577 5.83108C7.99793 5.90312 8.37332 5.86614 8.71447 5.72484C9.05562 5.58353 9.34721 5.34423 9.55235 5.0372C9.7575 4.73018 9.867 4.36921 9.867 3.99995C9.86647 3.50496 9.6696 3.03038 9.31958 2.68037C8.96957 2.33035 8.495 2.13348 8 2.13295ZM6 14.5C6.00264 14.3309 6.02684 14.1629 6.072 14H4V11.5C4.00079 10.8372 4.26444 10.2017 4.73311 9.73306C5.20178 9.26439 5.8372 9.00075 6.5 8.99995H8.762C9.01864 8.62876 9.32942 8.29809 9.684 8.01895C9.622 8.01495 9.563 7.99995 9.5 7.99995H6.5C5.57207 8.00101 4.68244 8.3701 4.0263 9.02625C3.37015 9.6824 3.00106 10.572 3 11.5V15H6V14.5ZM12.5 9.09995C11.8635 9.09995 11.253 9.35281 10.8029 9.8029C10.3529 10.253 10.1 10.8634 10.1 11.5C10.1032 11.7244 10.1382 11.9473 10.204 12.162L8 14.5V16H10.3L12.318 13.882C12.378 13.886 12.438 13.9 12.5 13.9C12.8152 13.9 13.1273 13.8379 13.4184 13.7173C13.7096 13.5967 13.9742 13.4199 14.1971 13.197C14.4199 12.9741 14.5967 12.7096 14.7173 12.4184C14.8379 12.1272 14.9 11.8151 14.9 11.5C14.9 11.1848 14.8379 10.8727 14.7173 10.5815C14.5967 10.2903 14.4199 10.0258 14.1971 9.8029C13.9742 9.58004 13.7096 9.40325 13.4184 9.28264C13.1273 9.16203 12.8152 9.09995 12.5 9.09995ZM12.5 13C12.3285 12.9982 12.1587 12.9668 11.998 12.907L9.986 15H9V14.897L11.33 12.427C11.1178 12.1644 11.0015 11.8375 11 11.5C11 11.2033 11.088 10.9133 11.2528 10.6666C11.4176 10.4199 11.6519 10.2277 11.926 10.1141C12.2001 10.0006 12.5017 9.9709 12.7926 10.0288C13.0836 10.0867 13.3509 10.2295 13.5607 10.4393C13.7704 10.6491 13.9133 10.9163 13.9712 11.2073C14.0291 11.4983 13.9994 11.7999 13.8858 12.074C13.7723 12.3481 13.58 12.5823 13.3334 12.7472C13.0867 12.912 12.7967 13 12.5 13ZM12 12H13V11H12V12Z" fill="#DDDDDD"/>
</svg>
