<svg width="31" height="31" viewBox="0 0 31 31" fill="none" xmlns="http://www.w3.org/2000/svg">
<path d="M15.5 28.4168C22.6337 28.4168 28.4167 22.6338 28.4167 15.5002C28.4167 8.36649 22.6337 2.5835 15.5 2.5835C8.36636 2.5835 2.58337 8.36649 2.58337 15.5002C2.58337 22.6338 8.36636 28.4168 15.5 28.4168Z" stroke="#0D7C85" stroke-width="2" stroke-linecap="round" stroke-linejoin="round"/>
<path d="M11.7412 11.6248C12.0449 10.7615 12.6443 10.0336 13.4332 9.56989C14.2222 9.10621 15.1498 8.93672 16.0517 9.09143C16.9537 9.24614 17.7718 9.71506 18.3611 10.4151C18.9504 11.1152 19.273 12.0013 19.2716 12.9164C19.2716 15.4998 15.3966 16.7914 15.3966 16.7914" stroke="#0D7C85" stroke-width="2" stroke-linecap="round" stroke-linejoin="round"/>
<path d="M15.5 21.9585H15.5113" stroke="#0D7C85" stroke-width="2" stroke-linecap="round" stroke-linejoin="round"/>
</svg>
