<svg width="48" height="48" viewBox="0 0 48 48" fill="none" xmlns="http://www.w3.org/2000/svg">
<path fill-rule="evenodd" clip-rule="evenodd" d="M3.02009 48H44.9799C46.0263 47.9993 46.9978 47.4617 47.5482 46.5787C48.0986 45.6957 48.1494 44.593 47.6826 43.6638L26.6447 1.66209C26.1612 0.647249 25.1313 0 24 0C22.8687 0 21.8388 0.647249 21.3553 1.66209L0.317373 43.6638C-0.14941 44.593 -0.0985513 45.6957 0.451817 46.5787C1.00218 47.4617 1.97374 47.9993 3.02009 48ZM24.0645 3.45416L44.6477 44.7999H3.35228L24.0645 3.45416ZM27.2123 36.7227V36.8763C27.2123 38.6437 25.7683 40.0765 23.9871 40.0765C22.2059 40.0765 20.7619 38.6437 20.7619 36.8763V36.7227C20.7619 34.9553 22.2059 33.5226 23.9871 33.5226C25.7683 33.5226 27.2123 34.9553 27.2123 36.7227ZM25.5965 28.7992H22.4455V15.9987H25.5965V28.7992Z" fill="#D05A06"/>
</svg>
