<svg width="32" height="32" viewBox="0 0 32 32" fill="none" xmlns="http://www.w3.org/2000/svg">
<path fill-rule="evenodd" clip-rule="evenodd" d="M16 30C14.3431 30 13 28.6568 13 27H14C14 28.1046 14.8954 29 16 29C17.1046 29 18 28.1046 18 27H19C19 28.6568 17.6569 30 16 30ZM29 25V26H3V25C5.20914 25 7 23.2091 7 21V14C7.00195 9.65935 10.1027 5.93897 14.372 5.15499C13.7804 4.32521 13.9073 3.18331 14.6667 2.50368C15.426 1.82405 16.575 1.82405 17.3343 2.50368C18.0937 3.18331 18.2206 4.32521 17.629 5.15499C21.8979 5.9394 24.9981 9.65966 25 14V21C25 23.2091 26.7909 25 29 25ZM16 4.99999C16.5523 4.99999 17 4.55227 17 3.99999C17 3.4477 16.5523 2.99999 16 2.99999C15.4477 2.99999 15 3.4477 15 3.99999C15.0006 4.55204 15.4479 4.99944 16 4.99999ZM26.003 25C24.7423 24.0568 24.0001 22.5744 24 21V14C24 9.58171 20.4183 5.99999 16 5.99999C11.5817 5.99999 8 9.58171 8 14V21C7.99992 22.5744 7.25766 24.0568 5.997 25H26.003Z" fill="#DDDDDD" stroke="#DDDDDD"/>
</svg>
