<svg width="16" height="16" viewBox="0 0 16 16" fill="none" xmlns="http://www.w3.org/2000/svg">
<path fill-rule="evenodd" clip-rule="evenodd" d="M8.49995 15.8002C12.5316 15.8002 15.8 12.5319 15.8 8.5002C15.8 4.46852 12.5316 1.2002 8.49995 1.2002C4.46827 1.2002 1.19995 4.46852 1.19995 8.5002C1.19995 12.5319 4.46827 15.8002 8.49995 15.8002ZM8.49995 4.5002C9.05224 4.5002 9.49995 4.94791 9.49995 5.5002C9.49995 6.05248 9.05224 6.5002 8.49995 6.5002C7.94767 6.5002 7.49995 6.05248 7.49995 5.5002C7.50105 4.94837 7.94812 4.5013 8.49995 4.5002ZM6.99995 12.0002H7.99995V8.0002H8.99995V12.0002H9.99995V13.0002H6.99995V12.0002Z" fill="#6A6A6A"/>
</svg>
