<svg width="16" height="16" viewBox="0 0 16 16" fill="none" xmlns="http://www.w3.org/2000/svg">
<g clip-path="url(#clip0_770_8506)">
<path fill-rule="evenodd" clip-rule="evenodd" d="M5.00026 9.50001C5.00721 9.6651 5.02323 9.82969 5.04826 9.99301C5.04126 9.98601 5.03226 9.98201 5.02526 9.97501L2.02526 6.97501C1.14103 6.09078 0.795694 4.80199 1.11935 3.5941C1.443 2.38622 2.38646 1.44275 3.59435 1.1191C4.80223 0.79545 6.09103 1.14078 6.97526 2.02501L9.97526 5.02501C10.8254 5.87218 11.18 7.09713 10.9139 8.26745C10.6477 9.43777 9.79821 10.3889 8.66526 10.785L8.43926 10.56C8.26521 10.3838 8.13801 10.1669 8.06926 9.92901C8.95301 9.72428 9.656 9.056 9.90519 8.18374C10.1544 7.31148 9.91049 6.37269 9.26826 5.73201L6.26826 2.73201C5.29182 1.75557 3.7087 1.75557 2.73226 2.73201C1.75582 3.70845 1.75582 5.29157 2.73226 6.26801L5.09026 8.62501C5.03174 8.91304 5.0016 9.20611 5.00026 9.50001ZM16.0003 12.5C16.0031 11.5712 15.634 10.6799 14.9753 10.025L11.9753 7.02501C11.9683 7.01801 11.9593 7.01401 11.9523 7.00701C11.9773 7.17034 11.9933 7.33493 12.0003 7.50001C11.9993 7.79422 11.9695 8.08763 11.9113 8.37601L14.2683 10.732C14.7385 11.2024 15.0019 11.8408 15.0002 12.5059C14.9985 13.171 14.7319 13.808 14.2593 14.276C13.2688 15.2123 11.7185 15.2088 10.7323 14.268L7.73226 11.268C6.79365 10.3293 6.75238 8.82066 7.63826 7.83201C7.983 7.45479 8.43789 7.19585 8.93826 7.09201C8.87071 6.8459 8.74087 6.62134 8.56126 6.44001L8.33926 6.21801C7.2053 6.61189 6.35418 7.5621 6.08706 8.73242C5.81994 9.90275 6.17449 11.1281 7.02526 11.975L10.0253 14.975C11.3873 16.3367 13.5936 16.3421 14.9623 14.987L14.6113 14.632L14.9633 14.987C15.6292 14.3312 16.003 13.4347 16.0003 12.5Z" fill="#00619B" stroke="#00619B" stroke-width="0.5"/>
</g>
<defs>
<clipPath id="clip0_770_8506">
<rect width="16" height="16" fill="white"/>
</clipPath>
</defs>
</svg>
