<svg width="24" height="24" viewBox="0 0 24 24" fill="none" xmlns="http://www.w3.org/2000/svg">
<path d="M12.0001 1.10006C11.0893 1.09294 10.1863 1.26762 9.3438 1.61386C8.50134 1.96011 7.73643 2.47096 7.09386 3.11651C6.45129 3.76205 5.94399 4.52932 5.60164 5.37337C5.2593 6.21742 5.0888 7.1213 5.10014 8.03206C5.10014 11.9141 8.88914 17.0421 12.0001 23.0001C15.1111 17.0431 18.9001 11.9141 18.9001 8.03206C18.9115 7.1213 18.741 6.21742 18.3986 5.37337C18.0563 4.52932 17.549 3.76205 16.9064 3.11651C16.2639 2.47096 15.4989 1.96011 14.6565 1.61386C13.814 1.26762 12.9109 1.09294 12.0001 1.10006ZM12.0001 11.0001C11.4068 11.0001 10.8268 10.8241 10.3334 10.4945C9.84008 10.1648 9.45556 9.69629 9.2285 9.14811C9.00144 8.59994 8.94203 7.99674 9.05778 7.41479C9.17354 6.83285 9.45926 6.2983 9.87882 5.87874C10.2984 5.45919 10.8329 5.17346 11.4149 5.05771C11.9968 4.94195 12.6 5.00136 13.1482 5.22842C13.6964 5.45549 14.1649 5.84 14.4945 6.33335C14.8242 6.8267 15.0001 7.40672 15.0001 8.00006C15.0001 8.79571 14.6841 9.55877 14.1215 10.1214C13.5589 10.684 12.7958 11.0001 12.0001 11.0001Z" fill="#00619B"/>
</svg>
