<svg width="97" height="40" viewBox="0 0 97 40" fill="none" xmlns="http://www.w3.org/2000/svg">
<path d="M21.4914 5.83616C21.0233 6.31211 20.1392 6.67224 19.4721 6.68491C19.9258 4.10245 17.8671 2.07558 15.6092 1.28655C12.0799 0.0523251 5.85885 0.986135 6.4381 5.92121C6.87029 9.61302 13.3156 11.144 16.1526 12.4036C20.1034 14.1572 23.2776 16.461 22.3002 21.3761C20.7238 29.3171 8.36952 30.6002 2.65773 26.8288C-0.798034 24.5467 -1.17822 20.3392 3.27644 19.1556C3.13656 20.5762 3.1509 21.7417 3.77319 23.0465C6.7878 29.3714 18.4463 29.7551 19.2121 22.7642C20.1446 14.2531 4.08523 16.2691 3.45039 7.8956C2.84245 -0.112358 14.5978 -1.54022 19.9312 1.4277C21.4806 2.28913 23.1251 4.17303 21.4914 5.83435" fill="black"/>
<path d="M67.322 27.6197C68.3873 27.0587 69.275 26.2027 69.8596 25.144C70.7599 23.5153 71.7534 21.302 72.1013 20.5058C74.8487 14.2369 77.2356 7.78713 80.1498 1.60154C80.6968 1.04596 82.153 1.04777 82.5188 1.86757C85.4545 8.66664 87.8701 15.7046 90.7968 22.5037C91.3187 23.7144 92.3409 26.3511 93.4044 27.0334L96.8027 28.3961C94.136 27.6722 91.4012 27.2705 88.6735 26.8416C87.3572 23.9985 86.353 21.0125 85.1747 18.1097L74.1618 18.021L69.9546 27.6179H67.322V27.6197ZM84.7874 17.3116L79.7517 4.49165L74.6012 17.1958L84.7874 17.3116Z" fill="black"/>
<path d="M46.9048 27.4352C46.9353 27.6253 46.747 27.6126 46.6179 27.6198C44.9626 27.7121 43.3092 27.6759 41.6503 27.6198L37.9417 18.0193C35.0437 17.9994 32.1546 18.184 29.253 18.1243C28.7491 18.1134 27.4381 17.7967 27.083 18.117C27.0041 18.1876 26.8481 18.5894 26.7782 18.7341C25.7273 20.9329 24.5742 23.7253 23.6865 26.0074C23.5771 26.2897 23.5215 26.5883 23.4695 26.8851L20.7328 27.1258C21.0072 26.8055 21.425 26.7874 21.8016 26.5304C22.5351 26.0273 23.0319 25.0319 23.4264 24.2429C26.8965 17.3027 29.244 9.32728 32.6173 2.33276C32.7052 2.14998 32.8092 1.86585 32.9275 1.72107C33.5104 1.00624 34.9594 0.988142 35.4077 1.86585L44.9734 25.3124C45.3787 26.0617 45.9741 27.3918 46.9084 27.4316M32.8612 4.60756L27.483 17.3117L37.6691 17.1959L32.8612 4.60756Z" fill="black"/>
<path d="M96.9982 29.4748C97.0251 29.6901 96.7687 29.5598 96.6503 29.5381C94.7906 29.1888 93.2412 29.0278 91.3295 29.1219C83.1967 29.5218 73.7332 32.7069 65.5484 34.1746C57.1932 35.673 48.6408 36.5127 40.187 35.3563C38.5156 39.1422 34.6509 41.1673 30.7307 39.2888C30.6626 39.1965 32.4075 37.9641 32.533 37.9315C33.0674 37.794 33.9408 37.9514 34.5505 37.8899C36.0623 37.7379 38.5156 36.7045 38.9711 35.1337C36.8926 34.77 33.6861 34.2198 34.7621 31.2899C35.0616 30.4755 36.9195 28.3473 37.7767 28.2098C38.8187 28.0415 39.9198 29.1381 40.3305 30.0086C40.7465 30.8899 40.7393 31.7532 40.9151 32.6526C41.1016 32.8119 43.3953 33.0218 43.8364 33.0544C56.9709 34.0207 69.0598 31.0691 81.8499 29.2612C86.7941 28.5627 92.1957 27.8279 96.9982 29.4766M39.2007 32.7051C39.2616 32.649 38.8312 31.5668 38.7254 31.3967C38.2735 30.6746 36.6828 29.6937 36.1251 30.6981C35.2284 32.3124 38.2466 32.6291 39.2024 32.7051" fill="#0D7C85"/>
<path d="M29.5883 35.7092C29.7784 35.2007 30.225 34.8189 30.4115 34.2904C31.1719 32.126 30.1676 28.2731 29.9506 25.982C30.0421 25.1568 31.5413 23.8375 32.2174 23.3525C32.1743 23.7308 31.9825 24.0457 31.986 24.4456C32.0022 26.0454 32.6388 27.9619 32.6801 29.6431C32.7392 32.0735 31.9932 34.7211 29.5865 35.711" fill="#0D7C85"/>
<path d="M69.4651 5.63541C68.8625 3.91799 68.5289 3.02943 67.8744 1.39526C67.6896 0.933782 67.4314 0.249712 66.9311 0.910256C65.7367 4.1243 63.7353 9.08652 62.428 12.2535C60.796 16.2059 58.2387 19.7548 60.0697 24.0275C60.9951 26.1847 63.4466 27.7826 65.7779 26.8597C68.8804 25.6309 66.1402 21.0197 64.8167 19.2227C64.7414 19.21 64.7683 20.513 64.7683 20.513C64.7683 20.513 65.7439 22.6702 65.8353 23.4502C66.0021 24.8744 65.9824 26.7131 64.0958 25.9693C61.985 25.1368 62.8799 21.0632 63.5811 19.4471L69.4615 5.63541H69.4651Z" fill="black"/>
<path d="M56.657 5.68253C56.0544 3.96511 55.7209 3.07654 55.0663 1.44238C54.8816 0.980901 54.6234 0.296831 54.123 0.957375C52.9286 4.17142 50.8896 9.0884 49.5823 12.2536C47.9503 16.206 45.2316 19.7548 47.0626 24.0275C47.988 26.1847 50.4395 27.7827 52.7708 26.8597C55.8733 25.6309 53.4397 20.8967 52.1163 19.0997C51.9298 19.0689 52.9824 22.0242 53.1349 23.3272C53.3017 24.7514 52.9735 26.7113 51.0887 25.9694C48.9779 25.1369 49.8728 21.0632 50.574 19.4472L56.6534 5.68253H56.657Z" fill="black"/>
<path d="M59.8779 16.1516C60.1361 15.5056 60.1361 14.7835 59.8743 14.1374L56.9009 6.78821C56.7933 7.25149 56.3808 7.57 56.5584 8.07129C57.6936 10.6049 59.8779 16.1498 59.8779 16.1498" fill="black"/>
<path d="M42.6976 1.10934C42.5918 0.850554 42.3426 0.682251 42.0664 0.682251H36.7993C37.1831 0.960946 37.4665 1.58892 37.9937 1.61606C38.8366 1.58711 40.2605 1.61425 41.8655 1.61244C41.9767 1.61244 42.0771 1.67759 42.1184 1.78074C42.6707 3.15069 46.3937 12.3114 47.4608 14.7545C47.719 14.1085 47.8607 13.7375 47.5971 13.0932L42.6976 1.10934Z" fill="black"/>
</svg>
