<svg width="97" height="40" viewBox="0 0 97 40" fill="none" xmlns="http://www.w3.org/2000/svg">
<path d="M21.4914 5.8364C21.0233 6.31235 20.1392 6.67248 19.4721 6.68515C19.9258 4.1027 17.8671 2.07582 15.6092 1.28679C12.0799 0.0525692 5.85885 0.986379 6.4381 5.92146C6.87029 9.61326 13.3156 11.1443 16.1526 12.4038C20.1034 14.1574 23.2776 16.4612 22.3002 21.3764C20.7238 29.3174 8.36952 30.6005 2.65773 26.829C-0.798034 24.547 -1.17822 20.3394 3.27644 19.1559C3.13656 20.5765 3.1509 21.7419 3.77319 23.0467C6.7878 29.3717 18.4463 29.7553 19.2121 22.7644C20.1446 14.2534 4.08523 16.2694 3.45039 7.89585C2.84245 -0.112114 14.5978 -1.53997 19.9312 1.42795C21.4806 2.28937 23.1251 4.17328 21.4914 5.83459" fill="white"/>
<path d="M67.322 27.6197C68.3873 27.0587 69.275 26.2027 69.8596 25.144C70.7599 23.5153 71.7534 21.302 72.1013 20.5058C74.8487 14.2369 77.2356 7.78713 80.1498 1.60154C80.6968 1.04596 82.153 1.04777 82.5188 1.86757C85.4545 8.66664 87.8701 15.7046 90.7968 22.5037C91.3187 23.7144 92.3409 26.3511 93.4044 27.0334L96.8027 28.3961C94.136 27.6722 91.4012 27.2705 88.6735 26.8416C87.3572 23.9985 86.353 21.0125 85.1747 18.1097L74.1618 18.021L69.9546 27.6179H67.322V27.6197ZM84.7874 17.3116L79.7517 4.49165L74.6012 17.1958L84.7874 17.3116Z" fill="white"/>
<path d="M46.9048 27.4352C46.9353 27.6253 46.747 27.6126 46.6179 27.6198C44.9626 27.7121 43.3092 27.6759 41.6503 27.6198L37.9417 18.0193C35.0436 17.9994 32.1546 18.184 29.2529 18.1243C28.749 18.1134 27.4381 17.7967 27.083 18.117C27.0041 18.1876 26.8481 18.5894 26.7781 18.7341C25.7272 20.9329 24.5741 23.7253 23.6864 26.0074C23.577 26.2897 23.5214 26.5883 23.4694 26.8851L20.7328 27.1258C21.0072 26.8055 21.425 26.7874 21.8016 26.5304C22.5351 26.0273 23.0319 25.0319 23.4264 24.2429C26.8965 17.3027 29.244 9.32728 32.6173 2.33276C32.7051 2.14998 32.8091 1.86585 32.9275 1.72107C33.5103 1.00624 34.9594 0.988142 35.4077 1.86585L44.9734 25.3124C45.3787 26.0617 45.9741 27.3918 46.9084 27.4316M32.8612 4.60756L27.4829 17.3117L37.6691 17.1959L32.8612 4.60756Z" fill="white"/>
<path d="M96.9982 29.4746C97.0251 29.69 96.7687 29.5597 96.6503 29.538C94.7906 29.1887 93.2412 29.0276 91.3295 29.1217C83.1967 29.5217 73.7332 32.7068 65.5484 34.1744C57.1932 35.6729 48.6408 36.5126 40.187 35.3562C38.5156 39.1421 34.6509 41.1672 30.7307 39.2887C30.6626 39.1964 32.4075 37.964 32.533 37.9314C33.0674 37.7939 33.9408 37.9513 34.5505 37.8898C36.0623 37.7378 38.5156 36.7044 38.9711 35.1336C36.8926 34.7698 33.6861 34.2197 34.7621 31.2898C35.0616 30.4754 36.9195 28.3472 37.7767 28.2096C38.8187 28.0413 39.9198 29.138 40.3305 30.0085C40.7465 30.8898 40.7393 31.7531 40.9151 32.6525C41.1016 32.8117 43.3953 33.0217 43.8364 33.0542C56.9709 34.0206 69.0598 31.069 81.8499 29.2611C86.7941 28.5625 92.1957 27.8278 96.9982 29.4764M39.2007 32.705C39.2616 32.6489 38.8312 31.5667 38.7254 31.3965C38.2735 30.6745 36.6828 29.6936 36.1251 30.698C35.2284 32.3123 38.2466 32.629 39.2024 32.705" fill="#0D7C85"/>
<path d="M29.5883 35.7092C29.7784 35.2007 30.225 34.8189 30.4115 34.2904C31.1719 32.126 30.1676 28.2731 29.9506 25.982C30.0421 25.1568 31.5413 23.8375 32.2174 23.3525C32.1743 23.7308 31.9825 24.0457 31.986 24.4456C32.0022 26.0454 32.6388 27.9619 32.6801 29.6431C32.7392 32.0735 31.9932 34.7211 29.5865 35.711" fill="#0D7C85"/>
<path d="M69.029 5.99893C68.4265 4.28152 68.0929 3.39295 67.4383 1.75878C67.2536 1.29731 66.9954 0.613237 66.495 1.27378C65.3007 4.48782 63.2993 9.45005 61.9919 12.617C60.36 16.5694 57.8027 20.1183 59.6337 24.391C60.5591 26.5482 63.0106 28.1462 65.3419 27.2232C68.4444 25.9944 65.7042 21.3833 64.3807 19.5862C64.3054 19.5736 64.3323 20.8766 64.3323 20.8766C64.3323 20.8766 65.3078 23.0337 65.3993 23.8137C65.5661 25.2379 65.5464 27.0766 63.6598 26.3328C61.549 25.5004 62.4439 21.4267 63.1451 19.8106L69.0254 5.99893H69.029Z" fill="white"/>
<path d="M56.657 5.68253C56.0544 3.96511 55.7209 3.07654 55.0663 1.44238C54.8816 0.980901 54.6234 0.296831 54.123 0.957375C52.9286 4.17142 50.8896 9.0884 49.5823 12.2536C47.9503 16.206 45.2316 19.7548 47.0626 24.0275C47.988 26.1847 50.4395 27.7827 52.7708 26.8597C55.8733 25.6309 53.4397 20.8967 52.1163 19.0997C51.9298 19.0689 52.9824 22.0242 53.1349 23.3272C53.3017 24.7514 52.9735 26.7113 51.0887 25.9694C48.9779 25.1369 49.8728 21.0632 50.574 19.4472L56.6534 5.68253H56.657Z" fill="white"/>
<path d="M59.8778 16.1515C60.136 15.5055 60.136 14.7834 59.8742 14.1373L56.9009 6.78809C56.7933 7.25137 56.3808 7.56988 56.5583 8.07117C57.6935 10.6048 59.8778 16.1497 59.8778 16.1497" fill="white"/>
<path d="M41.8983 1.42709C41.7925 1.1683 41.5432 1 41.267 1H36C36.3838 1.2787 36.6671 1.90666 37.1944 1.93381C38.0372 1.90485 39.4611 1.932 41.0662 1.93019C41.1774 1.93019 41.2778 1.99534 41.319 2.09849C41.8714 3.46844 45.5944 12.6292 46.6614 15.0723C46.9197 14.4262 47.0613 14.0552 46.7977 13.411L41.8983 1.42709Z" fill="white"/>
</svg>
