<svg width="16" height="16" viewBox="0 0 16 16" fill="none" xmlns="http://www.w3.org/2000/svg">
<g clip-path="url(#clip0_561_8313)">
<path fill-rule="evenodd" clip-rule="evenodd" d="M1.995 15.0004H15.005C15.3294 15.0001 15.6307 14.8321 15.8013 14.5562C15.972 14.2803 15.9877 13.9357 15.843 13.6454L9.32 0.520357C9.17009 0.203234 8.85077 0.000976563 8.5 0.000976562C8.14923 0.000976562 7.8299 0.203234 7.68 0.520357L1.157 13.6454C1.01227 13.9357 1.02804 14.2803 1.19868 14.5562C1.36933 14.8321 1.67057 15.0001 1.995 15.0004ZM8.52 1.08036L14.902 14.0004H2.098L8.52 1.08036ZM9.496 11.4764V11.5244C9.496 12.0766 9.04828 12.5244 8.496 12.5244C7.94371 12.5244 7.496 12.0766 7.496 11.5244V11.4764C7.496 10.9241 7.94371 10.4764 8.496 10.4764C9.04828 10.4764 9.496 10.9241 9.496 11.4764ZM8.995 9.00036H8.018V5.00036H8.995V9.00036Z" fill="#D83020"/>
</g>
<defs>
<clipPath id="clip0_561_8313">
<rect width="16" height="16" fill="white"/>
</clipPath>
</defs>
</svg>
