<svg width="31" height="31" viewBox="0 0 31 31" fill="none" xmlns="http://www.w3.org/2000/svg">
<path d="M30.8652 14.9692C30.8652 23.5705 24.1261 29.9384 15.4326 29.9384C13.8714 29.9384 12.3732 29.7322 10.9652 29.3452C10.6917 29.2693 10.4009 29.2909 10.1411 29.4051L7.078 30.7575C6.27674 31.1112 5.37239 30.5415 5.34585 29.6662L5.2619 26.9205C5.2514 26.5822 5.09955 26.2662 4.84707 26.0409C1.84389 23.3557 0 19.4686 0 14.9692C0 6.36793 6.7391 0 15.4326 0C24.1261 0 30.8652 6.36793 30.8652 14.9692Z" fill="#0866FF"/>
<path d="M19.6228 19.2785L24.9958 10.9749C25.5359 10.1403 24.5352 9.16871 23.7167 9.73352L18.108 13.602C17.9191 13.7323 17.6697 13.736 17.4771 13.6113L12.4986 10.3903C12.077 10.1175 11.5146 10.2385 11.2424 10.6594L5.86882 18.9631C5.32869 19.7976 6.32933 20.7692 7.14786 20.2044L12.7579 16.3353C12.9467 16.2051 13.1961 16.2014 13.3887 16.3261L18.366 19.5464C18.7876 19.8192 19.35 19.6983 19.6228 19.2773V19.2785Z" fill="white"/>
</svg>
