<svg width="12" height="11" viewBox="0 0 12 11" fill="none" xmlns="http://www.w3.org/2000/svg">
<path d="M10.3956 1.55591C10.1403 1.30041 9.83705 1.09774 9.50332 0.959455C9.16959 0.821174 8.81189 0.75 8.45065 0.75C8.0894 0.75 7.7317 0.821174 7.39797 0.959455C7.06424 1.09774 6.76102 1.30041 6.50565 1.55591L5.97565 2.08591L5.44565 1.55591C4.9298 1.04007 4.23016 0.750267 3.50065 0.750267C2.77113 0.750267 2.07149 1.04007 1.55565 1.55591C1.0398 2.07176 0.75 2.7714 0.75 3.50091C0.75 4.23043 1.0398 4.93007 1.55565 5.44591L2.08565 5.97591L5.97565 9.86591L9.86565 5.97591L10.3956 5.44591C10.6511 5.19054 10.8538 4.88732 10.9921 4.55359C11.1304 4.21986 11.2016 3.86216 11.2016 3.50091C11.2016 3.13967 11.1304 2.78196 10.9921 2.44824C10.8538 2.11451 10.6511 1.81129 10.3956 1.55591Z" fill="white" stroke="white" stroke-width="1.5" stroke-linecap="round" stroke-linejoin="round"/>
</svg>
