<svg width="27" height="29" viewBox="0 0 27 29" fill="none" xmlns="http://www.w3.org/2000/svg">
<path fill-rule="evenodd" clip-rule="evenodd" d="M13.5 28.506C11.8431 28.506 10.5 27.1629 10.5 25.506H11.5C11.5 26.6106 12.3954 27.506 13.5 27.506C14.6046 27.506 15.5 26.6106 15.5 25.506H16.5C16.5 27.1629 15.1569 28.506 13.5 28.506ZM26.5 23.506V24.506H0.5V23.506C2.70914 23.506 4.5 21.7152 4.5 19.506V12.506C4.50195 8.16539 7.60275 4.44502 11.872 3.66103C11.2804 2.83125 11.4073 1.68935 12.1667 1.00972C12.926 0.330093 14.075 0.330093 14.8343 1.00972C15.5937 1.68935 15.7206 2.83125 15.129 3.66103C19.3979 4.44544 22.4981 8.16571 22.5 12.506V19.506C22.5 21.7152 24.2909 23.506 26.5 23.506ZM13.5 3.50603C14.0523 3.50603 14.5 3.05831 14.5 2.50603C14.5 1.95374 14.0523 1.50603 13.5 1.50603C12.9477 1.50603 12.5 1.95374 12.5 2.50603C12.5006 3.05808 12.9479 3.50548 13.5 3.50603ZM23.503 23.506C22.2423 22.5628 21.5001 21.0805 21.5 19.506V12.506C21.5 8.08775 17.9183 4.50603 13.5 4.50603C9.08172 4.50603 5.5 8.08775 5.5 12.506V19.506C5.49992 21.0805 4.75766 22.5628 3.497 23.506H23.503Z" fill="#0D7C85" stroke="#0D7C85"/>
</svg>
