<svg width="24" height="24" viewBox="0 0 24 24" fill="none" xmlns="http://www.w3.org/2000/svg">
<path d="M3 7.5H21V6.615L17.166 1.5H5.334L1.5 6.615V21H10.5V19.5H3V7.5ZM12 3H16.416L18.6645 6H12V3ZM6.084 3H10.5V6H3.8355L6.084 3ZM22.455 9H13.545C12.693 9 12 9.693 12 10.545V22.5C12 23.352 12.648 24 13.5 24H22.5C23.352 24 24 23.307 24 22.455V10.545C24 9.693 23.307 9 22.455 9ZM22.5 22.5H13.5V10.5H22.5C22.5 10.5 22.5255 22.5 22.5 22.5ZM18 13.5H21V15H18V13.5ZM18 18H21V19.5H18V18ZM15 13.5H16.5V15H15V13.5ZM15 18H16.5V19.5H15V18Z" fill="#151515"/>
</svg>
