<svg width="28" height="28" viewBox="0 0 28 28" fill="none" xmlns="http://www.w3.org/2000/svg">
<path d="M3.5 8.75H24.5V7.7175L20.027 1.75H6.223L1.75 7.7175V24.5H12.25V22.75H3.5V8.75ZM14 3.5H19.152L21.7752 7H14V3.5ZM7.098 3.5H12.25V7H4.47475L7.098 3.5ZM26.1975 10.5H15.8025C14.8085 10.5 14 11.3085 14 12.3025V26.25C14 27.244 14.756 28 15.75 28H26.25C27.244 28 28 27.1915 28 26.1975V12.3025C28 11.3085 27.1915 10.5 26.1975 10.5ZM26.25 26.25H15.75V12.25H26.25C26.25 12.25 26.2798 26.25 26.25 26.25ZM21 15.75H24.5V17.5H21V15.75ZM21 21H24.5V22.75H21V21ZM17.5 15.75H19.25V17.5H17.5V15.75ZM17.5 21H19.25V22.75H17.5V21Z" fill="white"/>
</svg>
