<svg width="28" height="28" viewBox="0 0 28 28" fill="none" xmlns="http://www.w3.org/2000/svg">
<g clip-path="url(#clip0_2622_20009)">
<path d="M16.639 7.00996C16.5838 7.01049 16.5298 6.99397 16.4844 6.96264C16.439 6.93132 16.4044 6.88672 16.3853 6.83496C16.205 6.35896 16.3153 6.19796 16.7633 5.66071C17.3553 5.06537 17.7009 4.26854 17.731 3.42946C17.7257 2.95515 17.6231 2.48698 17.4296 2.05388C17.2362 1.62079 16.956 1.23198 16.6063 0.911482C16.2566 0.590989 15.8449 0.345627 15.3966 0.190565C14.9483 0.0355025 14.473 -0.0259642 14 0.00996438C13.527 -0.0259642 13.0517 0.0355025 12.6034 0.190565C12.1552 0.345627 11.7434 0.590989 11.3938 0.911482C11.0441 1.23198 10.7638 1.62079 10.5704 2.05388C10.3769 2.48698 10.2743 2.95515 10.269 3.42946C10.2982 4.26891 10.6432 5.0664 11.235 5.66246C11.683 6.19971 11.795 6.36071 11.613 6.83671C11.5939 6.88847 11.5593 6.93307 11.5138 6.96439C11.4684 6.99572 11.4144 7.01224 11.3593 7.01171H1.75001V14.8815C1.74886 15.2842 1.86868 15.678 2.09396 16.0119C2.31924 16.3458 2.63959 16.6043 3.01351 16.754C3.4824 16.9497 4.00028 16.9959 4.49641 16.8863C4.99255 16.7767 5.44274 16.5165 5.78551 16.1415C5.94995 15.9587 6.14917 15.8106 6.37152 15.7057C6.59387 15.6008 6.8349 15.5414 7.08051 15.5307C8.31251 15.529 8.75001 16.5965 8.75001 17.51C8.75001 18.4235 8.31251 19.491 7.08051 19.491C6.8349 19.4803 6.59387 19.4208 6.37152 19.316C6.14917 19.2111 5.94995 19.063 5.78551 18.8802C5.44274 18.5051 4.99255 18.245 4.49641 18.1354C4.00028 18.0258 3.4824 18.072 3.01351 18.2677C2.63959 18.4174 2.31924 18.6759 2.09396 19.0098C1.86868 19.3436 1.74886 19.7375 1.75001 20.1402V28.01H26.25V7.00996H16.639ZM24.5 26.26H3.50001V20.1402C3.50003 20.0863 3.51622 20.0336 3.54648 19.989C3.57674 19.9444 3.61968 19.9099 3.66976 19.89C4.04601 19.7342 4.13701 19.7832 4.66376 20.2225C5.30884 20.8594 6.17409 21.2241 7.08051 21.241C7.5549 21.2359 8.02319 21.1335 8.45641 20.9401C8.88963 20.7467 9.27854 20.4665 9.59909 20.1168C9.91963 19.767 10.165 19.3552 10.3199 18.9068C10.4749 18.4584 10.5362 17.983 10.5 17.51C10.5362 17.0369 10.4749 16.5615 10.3199 16.1131C10.165 15.6647 9.91963 15.2529 9.59909 14.9032C9.27854 14.5534 8.88963 14.2732 8.45641 14.0798C8.02319 13.8864 7.5549 13.784 7.08051 13.779C6.17434 13.7954 5.30912 14.1594 4.66376 14.7957C4.13701 15.2332 4.04776 15.284 3.66801 15.1282C3.61894 15.108 3.57687 15.0739 3.54701 15.03C3.51715 14.9862 3.50081 14.9345 3.50001 14.8815V8.75996H11.361C11.7706 8.75896 12.1703 8.63407 12.5077 8.40169C12.845 8.16932 13.1041 7.84033 13.251 7.45796C13.446 6.96048 13.4864 6.41572 13.3668 5.89492C13.2472 5.37413 12.9733 4.90154 12.5808 4.53896C12.2593 4.25394 12.0585 3.85724 12.019 3.42946C12.019 2.19746 13.0865 1.75996 14 1.75996C14.9135 1.75996 15.981 2.19746 15.981 3.42946C15.9415 3.85724 15.7407 4.25394 15.4193 4.53896C15.027 4.90175 14.7534 5.37443 14.6342 5.89521C14.5149 6.41599 14.5555 6.96065 14.7508 7.45796C14.8975 7.84005 15.1564 8.16885 15.4934 8.4012C15.8304 8.63355 16.2297 8.75861 16.639 8.75996H24.5V26.26Z" fill="white"/>
</g>
<defs>
<clipPath id="clip0_2622_20009">
<rect width="28" height="28" fill="white"/>
</clipPath>
</defs>
</svg>
