<svg width="28" height="28" viewBox="0 0 28 28" fill="none" xmlns="http://www.w3.org/2000/svg">
<path fill-rule="evenodd" clip-rule="evenodd" d="M7 17.5V21C7 21.9665 7.7835 22.75 8.75 22.75H14C14.9665 22.75 15.75 21.9665 15.75 21V20.188L22.5505 24.115C23.3141 24.555 24.2544 24.5544 25.0174 24.1133C25.7804 23.6723 26.2502 22.8578 26.25 21.9765V6.02349C26.2502 5.1422 25.7804 4.3277 25.0174 3.88665C24.2544 3.4456 23.3141 3.44497 22.5505 3.88499C10.738 10.7047 16.919 7.13999 11.4993 10.2672C11.2332 10.4207 10.9313 10.501 10.6243 10.5H3.5C2.5335 10.5 1.75 11.2835 1.75 12.25V15.75C1.75 16.7165 2.5335 17.5 3.5 17.5H10.6243C10.9313 17.499 11.2332 17.5793 11.4993 17.7327L14 19.1765V21H8.75V17.5H7ZM10.6243 15.75H3.5175L3.5 12.25H10.6243C11.2385 12.2505 11.842 12.0894 12.3743 11.7827L23.4272 5.40224C23.535 5.33912 23.6576 5.3059 23.7825 5.30599C23.9084 5.30668 24.0319 5.33983 24.1413 5.40224C24.3627 5.53091 24.4992 5.76739 24.5 6.02349V21.9765C24.4992 22.2326 24.3627 22.4691 24.1413 22.5977C24.0319 22.6602 23.9084 22.6933 23.7825 22.694C23.6584 22.6941 23.5365 22.6615 23.429 22.5995L12.3725 16.2172C11.8408 15.9109 11.2379 15.7498 10.6243 15.75Z" fill="white"/>
</svg>
