<svg width="38" height="38" viewBox="0 0 38 38" fill="none" xmlns="http://www.w3.org/2000/svg">
<path d="M14.2501 7.91667H11.0834C9.33451 7.91667 7.91675 9.33443 7.91675 11.0833V30.0833C7.91675 31.8322 9.33451 33.25 11.0834 33.25H26.9167C28.6657 33.25 30.0834 31.8322 30.0834 30.0833V11.0833C30.0834 9.33443 28.6657 7.91667 26.9167 7.91667H23.7501M14.2501 7.91667C14.2501 9.66557 15.6678 11.0833 17.4167 11.0833H20.5834C22.3323 11.0833 23.7501 9.66557 23.7501 7.91667M14.2501 7.91667C14.2501 6.16777 15.6678 4.75 17.4167 4.75H20.5834C22.3323 4.75 23.7501 6.16777 23.7501 7.91667M19.0001 19H23.7501M19.0001 25.3333H23.7501M14.2501 19H14.2659M14.2501 25.3333H14.2659" stroke="white" stroke-width="1.5" stroke-linecap="round"/>
</svg>
