<svg width="16" height="16" viewBox="0 0 16 16" fill="none" xmlns="http://www.w3.org/2000/svg">
<g clip-path="url(#clip0_84_558)">
<path d="M9.50801 4.00569C9.47648 4.006 9.44563 3.99655 9.41967 3.97865C9.39372 3.96075 9.37393 3.93527 9.363 3.90569C9.26 3.63369 9.32301 3.54169 9.57901 3.23469C9.91732 2.8945 10.1148 2.43917 10.132 1.95969C10.129 1.68866 10.0703 1.42113 9.9598 1.17365C9.84925 0.926165 9.68911 0.703986 9.48929 0.520847C9.28947 0.337708 9.05421 0.197501 8.79805 0.108894C8.54189 0.0202871 8.27028 -0.0148367 8 0.00569393C7.72973 -0.0148367 7.45812 0.0202871 7.20196 0.108894C6.9458 0.197501 6.71054 0.337708 6.51072 0.520847C6.3109 0.703986 6.15076 0.926165 6.04021 1.17365C5.92967 1.42113 5.87106 1.68866 5.868 1.95969C5.88469 2.43938 6.08183 2.89509 6.42 3.23569C6.676 3.54269 6.74001 3.63469 6.636 3.90669C6.62508 3.93627 6.60529 3.96175 6.57934 3.97965C6.55338 3.99755 6.52253 4.007 6.491 4.00669H1V8.50369C0.999346 8.73384 1.06782 8.95888 1.19655 9.14966C1.32528 9.34044 1.50834 9.48817 1.722 9.57369C1.98994 9.68554 2.28587 9.71194 2.56938 9.6493C2.85288 9.58666 3.11014 9.43802 3.306 9.22369C3.39997 9.11927 3.51381 9.03462 3.64087 8.97469C3.76793 8.91477 3.90566 8.88077 4.046 8.87469C4.75 8.87369 5 9.48369 5 10.0057C5 10.5277 4.75 11.1377 4.046 11.1377C3.90566 11.1316 3.76793 11.0976 3.64087 11.0377C3.51381 10.9778 3.39997 10.8931 3.306 10.7887C3.11014 10.5744 2.85288 10.4257 2.56938 10.3631C2.28587 10.3004 1.98994 10.3268 1.722 10.4387C1.50834 10.5242 1.32528 10.6719 1.19655 10.8627C1.06782 11.0535 0.999346 11.2785 1 11.5087V16.0057H15V4.00569H9.50801ZM14 15.0057H2V11.5087C2.00002 11.4779 2.00927 11.4478 2.02656 11.4223C2.04385 11.3968 2.06839 11.3771 2.097 11.3657C2.312 11.2767 2.364 11.3047 2.665 11.5557C3.03363 11.9197 3.52805 12.128 4.046 12.1377C4.31708 12.1348 4.58468 12.0763 4.83223 11.9658C5.07979 11.8553 5.30202 11.6951 5.48519 11.4953C5.66836 11.2954 5.80856 11.0601 5.89711 10.8039C5.98566 10.5477 6.02068 10.276 6 10.0057C6.02068 9.73539 5.98566 9.46372 5.89711 9.20749C5.80856 8.95127 5.66836 8.71595 5.48519 8.51609C5.30202 8.31624 5.07979 8.15611 4.83223 8.04561C4.58468 7.93511 4.31708 7.8766 4.046 7.87369C3.52819 7.88307 3.03378 8.09107 2.665 8.45469C2.364 8.70469 2.313 8.73369 2.096 8.64469C2.06797 8.63316 2.04393 8.61365 2.02686 8.58859C2.0098 8.56353 2.00046 8.53401 2 8.50369V5.00569H6.492C6.72607 5.00512 6.95448 4.93375 7.14724 4.80097C7.33999 4.66818 7.48807 4.48019 7.572 4.26169C7.68345 3.97742 7.70651 3.66612 7.63818 3.36853C7.56984 3.07093 7.4133 2.80088 7.189 2.59369C7.00533 2.43082 6.89056 2.20414 6.868 1.95969C6.868 1.25569 7.478 1.00569 8 1.00569C8.522 1.00569 9.132 1.25569 9.132 1.95969C9.10945 2.20414 8.99467 2.43082 8.811 2.59369C8.58688 2.801 8.43053 3.0711 8.36237 3.36869C8.29422 3.66628 8.31744 3.97751 8.429 4.26169C8.51288 4.48003 8.6608 4.66791 8.85336 4.80068C9.04592 4.93346 9.27411 5.00492 9.50801 5.00569H14V15.0057Z" fill="#DDDDDD"/>
</g>
<defs>
<clipPath id="clip0_84_558">
<rect width="16" height="16" fill="white"/>
</clipPath>
</defs>
</svg>
