<svg width="20" height="20" viewBox="0 0 20 20" fill="none" xmlns="http://www.w3.org/2000/svg">
<path d="M6.75 12.75L12.75 6.75" stroke="#0D7C85" stroke-width="1.5" stroke-linecap="round" stroke-linejoin="round"/>
<path d="M7.25 7.75C7.52614 7.75 7.75 7.52614 7.75 7.25C7.75 6.97386 7.52614 6.75 7.25 6.75C6.97386 6.75 6.75 6.97386 6.75 7.25C6.75 7.52614 6.97386 7.75 7.25 7.75Z" fill="#21272A" stroke="#0D7C85" stroke-width="1.5" stroke-linecap="round" stroke-linejoin="round"/>
<path d="M12.25 12.75C12.5261 12.75 12.75 12.5261 12.75 12.25C12.75 11.9739 12.5261 11.75 12.25 11.75C11.9739 11.75 11.75 11.9739 11.75 12.25C11.75 12.5261 11.9739 12.75 12.25 12.75Z" fill="#21272A" stroke="#0D7C85" stroke-width="1.5" stroke-linecap="round" stroke-linejoin="round"/>
<path d="M9.75 18.75C14.7206 18.75 18.75 14.7206 18.75 9.75C18.75 4.77944 14.7206 0.75 9.75 0.75C4.77944 0.75 0.75 4.77944 0.75 9.75C0.75 14.7206 4.77944 18.75 9.75 18.75Z" stroke="#0D7C85" stroke-width="1.5" stroke-linecap="round" stroke-linejoin="round"/>
</svg>
