<svg width="38" height="38" viewBox="0 0 38 38" fill="none" xmlns="http://www.w3.org/2000/svg">
<g filter="url(#filter0_d_5133_94909)">
<rect x="4" y="3" width="30" height="30" rx="3" fill="white"/>
</g>
<g clip-path="url(#clip0_5133_94909)">
<path d="M19 21C20.6569 21 22 19.6569 22 18C22 16.3431 20.6569 15 19 15C17.3431 15 16 16.3431 16 18C16 19.6569 17.3431 21 19 21Z" stroke="#0D7C85" stroke-width="2" stroke-linecap="round" stroke-linejoin="round"/>
<path d="M19 26C23.4183 26 27 22.4183 27 18C27 13.5817 23.4183 10 19 10C14.5817 10 11 13.5817 11 18C11 22.4183 14.5817 26 19 26Z" stroke="#0D7C85" stroke-width="2" stroke-linecap="round" stroke-linejoin="round"/>
<path d="M19 8V10" stroke="#0D7C85" stroke-width="2" stroke-linecap="round" stroke-linejoin="round"/>
<path d="M19 26V28" stroke="#0D7C85" stroke-width="2" stroke-linecap="round" stroke-linejoin="round"/>
<path d="M27 18H29" stroke="#0D7C85" stroke-width="2" stroke-linecap="round" stroke-linejoin="round"/>
<path d="M9 18H11" stroke="#0D7C85" stroke-width="2" stroke-linecap="round" stroke-linejoin="round"/>
</g>
<defs>
<filter id="filter0_d_5133_94909" x="0" y="0" width="38" height="38" filterUnits="userSpaceOnUse" color-interpolation-filters="sRGB">
<feFlood flood-opacity="0" result="BackgroundImageFix"/>
<feColorMatrix in="SourceAlpha" type="matrix" values="0 0 0 0 0 0 0 0 0 0 0 0 0 0 0 0 0 0 127 0" result="hardAlpha"/>
<feOffset dy="1"/>
<feGaussianBlur stdDeviation="2"/>
<feComposite in2="hardAlpha" operator="out"/>
<feColorMatrix type="matrix" values="0 0 0 0 0 0 0 0 0 0 0 0 0 0 0 0 0 0 0.25 0"/>
<feBlend mode="normal" in2="BackgroundImageFix" result="effect1_dropShadow_5133_94909"/>
<feBlend mode="normal" in="SourceGraphic" in2="effect1_dropShadow_5133_94909" result="shape"/>
</filter>
<clipPath id="clip0_5133_94909">
<rect width="24" height="24" fill="white" transform="translate(7 6)"/>
</clipPath>
</defs>
</svg>
