<svg width="24" height="25" viewBox="0 0 24 25" fill="none" xmlns="http://www.w3.org/2000/svg">
<path d="M17 8.25C18.6569 8.25 20 6.85089 20 5.125C20 3.39911 18.6569 2 17 2C15.3431 2 14 3.39911 14 5.125C14 6.85089 15.3431 8.25 17 8.25Z" stroke="#818181" stroke-width="1.5" stroke-linecap="round" stroke-linejoin="round"/>
<path d="M5 15.542C6.65685 15.542 8 14.1429 8 12.417C8 10.6911 6.65685 9.29199 5 9.29199C3.34315 9.29199 2 10.6911 2 12.417C2 14.1429 3.34315 15.542 5 15.542Z" stroke="#818181" stroke-width="1.5" stroke-linecap="round" stroke-linejoin="round"/>
<path d="M17 22.834C18.6569 22.834 20 21.4349 20 19.709C20 17.9831 18.6569 16.584 17 16.584C15.3431 16.584 14 17.9831 14 19.709C14 21.4349 15.3431 22.834 17 22.834Z" stroke="#818181" stroke-width="1.5" stroke-linecap="round" stroke-linejoin="round"/>
<path d="M7.58984 13.9902L14.4198 18.1361" stroke="#818181" stroke-width="1.5" stroke-linecap="round" stroke-linejoin="round"/>
<path d="M14.4098 6.69824L7.58984 10.8441" stroke="#818181" stroke-width="1.5" stroke-linecap="round" stroke-linejoin="round"/>
</svg>
