<svg width="20" height="17" viewBox="0 0 20 17" fill="none" xmlns="http://www.w3.org/2000/svg">
<path fill-rule="evenodd" clip-rule="evenodd" d="M18.3518 16.9565H1.23219C0.805283 16.9562 0.40889 16.7663 0.18434 16.4544C-0.0402107 16.1425 -0.0609589 15.7529 0.129488 15.4247L8.71297 0.587149C8.91023 0.228647 9.33042 0 9.79199 0C10.2536 0 10.6738 0.228647 10.871 0.587149L19.4545 15.4247C19.6449 15.7529 19.6242 16.1425 19.3996 16.4544C19.1751 16.7663 18.7787 16.9562 18.3518 16.9565ZM9.76567 1.22022L1.36773 15.826H18.2163L9.76567 1.22022ZM8.48138 12.9727V13.0269C8.48138 13.6513 9.07051 14.1574 9.79726 14.1574C10.524 14.1574 11.1131 13.6513 11.1131 13.0269V12.9727C11.1131 12.3483 10.524 11.8422 9.79726 11.8422C9.07051 11.8422 8.48138 12.3483 8.48138 12.9727ZM9.14063 10.1736H10.4262V5.65169H9.14063V10.1736Z" fill="#D05A06"/>
</svg>
