<svg width="33" height="26" viewBox="0 0 33 26" fill="none" xmlns="http://www.w3.org/2000/svg">
<path d="M32.3539 4.90643C31.7571 3.2208 31.4268 2.34867 30.7784 0.744743C30.5955 0.291806 30.3397 -0.379606 29.8441 0.268715C28.6612 3.42329 26.6789 8.29369 25.384 11.4021C23.7677 15.2813 21.2348 18.7645 23.0483 22.9582C23.9648 25.0754 26.3929 26.6438 28.702 25.738C31.7749 24.5319 29.0608 20.0061 27.75 18.2423C27.6754 18.2299 27.702 19.5088 27.702 19.5088C27.702 19.5088 28.6683 21.626 28.7589 22.3916C28.9241 23.7895 28.9045 25.5941 27.0359 24.8641C24.9453 24.047 25.8317 20.0487 26.5262 18.4626L32.3504 4.90643H32.3539Z" fill="white"/>
<path d="M19.6682 4.95233C19.0714 3.2667 18.741 2.39457 18.0927 0.790641C17.9098 0.337705 17.654 -0.333708 17.1584 0.314614C15.9755 3.46918 13.9559 8.29518 12.661 11.4018C11.0447 15.2811 8.35192 18.7642 10.1654 22.9579C11.082 25.0752 13.5101 26.6436 15.8192 25.7377C18.892 24.5316 16.4817 19.885 15.1708 18.1212C14.9861 18.091 16.0288 20.9916 16.1797 22.2705C16.3449 23.6684 16.0199 25.592 14.1531 24.8638C12.0625 24.0467 12.9488 20.0484 13.6433 18.4623L19.6647 4.95233H19.6682Z" fill="white"/>
<path d="M22.858 15.2283C23.1138 14.5941 23.1138 13.8854 22.8545 13.2513L19.9095 6.03809C19.8029 6.4928 19.3944 6.80541 19.5702 7.29743C20.6946 9.78414 22.858 15.2265 22.858 15.2265" fill="white"/>
<path d="M5.842 0.46411C5.7372 0.210111 5.49031 0.0449219 5.21677 0.0449219H0C0.380112 0.31846 0.660755 0.934809 1.18296 0.961453C2.01779 0.933033 3.42811 0.959676 5.01783 0.9579C5.12795 0.9579 5.22742 1.02184 5.26828 1.12309C5.81535 2.46769 9.50279 11.4589 10.5596 13.8568C10.8154 13.2227 10.9557 12.8586 10.6946 12.2263L5.842 0.46411Z" fill="white"/>
</svg>
