<svg width="26" height="26" viewBox="0 0 26 26" fill="none" xmlns="http://www.w3.org/2000/svg">
<path fill-rule="evenodd" clip-rule="evenodd" d="M22.75 11.375C23.1987 11.375 23.5625 11.7388 23.5625 12.1875V22.75C23.5625 23.1987 23.1987 23.5625 22.75 23.5625C22.3013 23.5625 21.9375 23.1987 21.9375 22.75V12.1875C21.9375 11.7388 22.3013 11.375 22.75 11.375Z" fill="white"/>
<path fill-rule="evenodd" clip-rule="evenodd" d="M3.25 11.375C3.69873 11.375 4.0625 11.7388 4.0625 12.1875V22.75C4.0625 23.1987 3.69873 23.5625 3.25 23.5625C2.80127 23.5625 2.4375 23.1987 2.4375 22.75V12.1875C2.4375 11.7388 2.80127 11.375 3.25 11.375Z" fill="white"/>
<path fill-rule="evenodd" clip-rule="evenodd" d="M3.30356 3.64579C3.87755 2.39333 5.18335 1.625 6.57769 1.625H19.4223C20.8166 1.625 22.1224 2.39333 22.6964 3.64579L24.8952 8.44644C25.9114 10.663 24.19 13.0263 21.7856 13.1012C21.7771 13.1014 21.7687 13.1016 21.7603 13.1016H21.6612C20.5199 13.1016 19.4634 12.6058 18.7742 11.8063C18.0849 12.6058 17.0282 13.1016 15.8869 13.1016C14.7477 13.1016 13.704 12.5807 13.0177 11.7868C12.3298 12.5976 11.2666 13.1016 10.1156 13.1016C8.96689 13.1016 7.91488 12.5719 7.22876 11.7666C6.54275 12.5723 5.49041 13.1016 4.34129 13.1016H4.23972C4.23143 13.1016 4.22314 13.1014 4.21486 13.1012C1.80952 13.0275 0.0886142 10.6639 1.10465 8.44682L3.30356 3.64579ZM8.0407 9.63676C8.0407 10.5133 8.92253 11.4766 10.1156 11.4766C11.3267 11.4766 12.1875 10.5905 12.1875 9.63676C12.1875 9.18803 12.5513 8.82426 13 8.82426C13.4487 8.82426 13.8125 9.18803 13.8125 9.63676C13.8125 10.5134 14.694 11.4766 15.8869 11.4766C17.0991 11.4766 17.9618 10.5894 17.9618 9.63676C17.9618 9.18803 18.3256 8.82426 18.7743 8.82426C19.2231 8.82426 19.5868 9.18803 19.5868 9.63676C19.5868 10.5896 20.4492 11.4766 21.6612 11.4766H21.7467C23.1492 11.4258 23.881 10.1331 23.4181 9.12387L21.2192 4.3228C20.9339 3.70051 20.2409 3.25 19.4223 3.25H6.57769C5.75906 3.25 5.06617 3.70034 4.78089 4.32263L2.58197 9.1237C2.11869 10.1345 2.85131 11.4267 4.25309 11.4766H4.34129C5.53469 11.4766 6.4157 10.5155 6.4157 9.63676C6.4157 9.18803 6.77947 8.82426 7.2282 8.82426C7.67693 8.82426 8.0407 9.18803 8.0407 9.63676Z" fill="white"/>
<path fill-rule="evenodd" clip-rule="evenodd" d="M0.8125 23.5625C0.8125 23.1138 1.17627 22.75 1.625 22.75H24.375C24.8237 22.75 25.1875 23.1138 25.1875 23.5625C25.1875 24.0112 24.8237 24.375 24.375 24.375H1.625C1.17627 24.375 0.8125 24.0112 0.8125 23.5625Z" fill="white"/>
<path fill-rule="evenodd" clip-rule="evenodd" d="M6.90625 15.4375C6.79851 15.4375 6.69518 15.4803 6.61899 15.5565C6.5428 15.6327 6.5 15.736 6.5 15.8438V19.5H11.375V15.8438C11.375 15.736 11.3322 15.6327 11.256 15.5565C11.1798 15.4803 11.0765 15.4375 10.9688 15.4375H6.90625ZM5.46994 14.4074C5.85087 14.0265 6.36753 13.8125 6.90625 13.8125H10.9688C11.5075 13.8125 12.0241 14.0265 12.4051 14.4074C12.786 14.7884 13 15.305 13 15.8438V20.3125C13 20.7612 12.6362 21.125 12.1875 21.125H5.6875C5.23877 21.125 4.875 20.7612 4.875 20.3125V15.8438C4.875 15.305 5.08901 14.7884 5.46994 14.4074Z" fill="white"/>
<path fill-rule="evenodd" clip-rule="evenodd" d="M15.8438 15.4375C15.736 15.4375 15.6327 15.4803 15.5565 15.5565C15.4803 15.6327 15.4375 15.736 15.4375 15.8438V23.5625C15.4375 24.0112 15.0737 24.375 14.625 24.375C14.1763 24.375 13.8125 24.0112 13.8125 23.5625V15.8438C13.8125 15.305 14.0265 14.7884 14.4074 14.4074C14.7884 14.0265 15.305 13.8125 15.8438 13.8125H19.0938C19.6325 13.8125 20.1491 14.0265 20.5301 14.4074C20.911 14.7884 21.125 15.305 21.125 15.8438V23.5625C21.125 24.0112 20.7612 24.375 20.3125 24.375C19.8638 24.375 19.5 24.0112 19.5 23.5625V15.8438C19.5 15.736 19.4572 15.6327 19.381 15.5565C19.3048 15.4803 19.2015 15.4375 19.0938 15.4375H15.8438Z" fill="white"/>
</svg>
