<svg width="26" height="26" viewBox="0 0 26 26" fill="none" xmlns="http://www.w3.org/2000/svg">
<path fill-rule="evenodd" clip-rule="evenodd" d="M16.1753 22.9889C15.912 21.8969 14.9358 21.1267 13.8125 21.125H12.1875C10.8413 21.125 9.75 22.2163 9.75 23.5625C9.75 24.9087 10.8413 26 12.1875 26H13.8125C14.66 25.9984 15.4453 25.5549 15.8844 24.83C19.1864 23.972 21.3054 21.5069 22.2219 17.4606L23.725 16.3313C24.1332 16.0235 24.3737 15.5424 24.375 15.0312V12.5938C24.3732 12.0827 24.1328 11.6018 23.725 11.2937L22.607 10.4552C22.0202 5.54559 17.9416 1.79681 13 1.625C7.70737 1.83002 3.46836 6.08178 3.27925 11.375H1.625V13H4.875V12.1875C4.66703 7.48173 8.29576 3.49012 13 3.25C16.7918 3.38333 20.0101 6.07172 20.8162 9.77925C20.6708 9.80724 20.5297 9.85479 20.397 9.92062C19.8453 10.1949 19.4975 10.7589 19.5 11.375V16.25C19.4975 16.8661 19.8453 17.4301 20.397 17.7044C20.4165 17.7125 20.4376 17.7092 20.4555 17.7174C19.989 20.0746 18.3864 22.0483 16.1753 22.9889ZM11.375 23.5625C11.375 23.1138 11.7388 22.75 12.1875 22.75H13.8125C14.2612 22.75 14.625 23.1138 14.625 23.5625C14.625 24.0112 14.2612 24.375 13.8125 24.375H12.1875C11.7388 24.375 11.375 24.0112 11.375 23.5625ZM21.125 11.375L22.75 12.5938V15.0312L21.125 16.25V11.375Z" fill="white"/>
</svg>
