<svg width="19" height="19" viewBox="0 0 19 19" fill="none" xmlns="http://www.w3.org/2000/svg">
<path fill-rule="evenodd" clip-rule="evenodd" d="M9.68235 1.78153C13.861 1.87854 17.2187 5.29809 17.2187 9.50008C17.2187 13.7668 13.7697 17.2269 9.49884 17.2188C5.22432 17.2108 1.73389 13.6981 1.78124 9.41951C1.80056 7.54839 2.49942 5.7481 3.74762 4.35402C3.96636 4.10972 4.34173 4.08899 4.58604 4.30773C4.83034 4.52647 4.85106 4.90185 4.63232 5.14615C3.57624 6.32565 2.98497 7.84886 2.96867 9.43198L2.96867 9.43245C2.92856 13.047 5.88251 16.0245 9.50107 16.0313C13.1122 16.0381 16.0312 13.1131 16.0312 9.50008C16.0312 6.09277 13.422 3.29352 10.0937 2.99353V5.64071C10.0937 5.96863 9.82787 6.23446 9.49995 6.23446C9.17203 6.23446 8.9062 5.96863 8.9062 5.64071V2.53784C8.90606 2.43676 8.92621 2.33668 8.96544 2.24353C9.00481 2.15005 9.06261 2.06544 9.13538 1.99477C9.20815 1.92411 9.29441 1.86881 9.38902 1.83219C9.48248 1.79601 9.5822 1.7788 9.68235 1.78153Z" fill="#21272A"/>
<path d="M8.66064 10.3396L5.729 6.14627C5.68844 6.08817 5.66962 6.01765 5.67585 5.94706C5.68208 5.87648 5.71295 5.81034 5.76305 5.76024C5.81315 5.71014 5.87929 5.67927 5.94987 5.67304C6.02045 5.66682 6.09097 5.68563 6.14907 5.72619L10.3424 8.65783C10.5996 8.84308 10.7736 9.12213 10.8266 9.43463C10.8797 9.74714 10.8076 10.068 10.6259 10.3277C10.4442 10.5875 10.1676 10.7652 9.85588 10.8226C9.54414 10.88 9.22235 10.8123 8.96011 10.6343C8.84416 10.5539 8.74286 10.4543 8.66064 10.3396Z" fill="#21272A"/>
</svg>
