<svg width="24" height="24" viewBox="0 0 24 24" fill="none" xmlns="http://www.w3.org/2000/svg">
<path d="M15 6.99997V7.99997H18.162L21.762 17H15V17.5C15 18.163 14.7366 18.7989 14.2678 19.2677C13.7989 19.7366 13.163 20 12.5 20C11.837 20 11.2011 19.7366 10.7322 19.2677C10.2634 18.7989 10 18.163 10 17.5V17H3.238L6.838 7.99997H10V6.99997H6.162L2.036 17.314L2 23H23V17.5L18.838 6.99997H15ZM3 22V18H9.036C9.15638 18.8328 9.57281 19.5944 10.209 20.1453C10.8452 20.6961 11.6585 20.9993 12.5 20.9993C13.3415 20.9993 14.1548 20.6961 14.791 20.1453C15.4272 19.5944 15.8436 18.8328 15.964 18H22V22H3ZM12 2.70697L9.354 5.35397L8.647 4.64697L12.5 0.792969L16.354 4.64697L15.647 5.35397L13 2.70697V15H12V2.70697Z" fill="#6A6A6A"/>
</svg>
