<svg width="28" height="28" viewBox="0 0 28 28" fill="none" xmlns="http://www.w3.org/2000/svg">
<path d="M14 11.8999C13.0309 11.8999 12.0835 11.6125 11.2777 11.0741C10.4719 10.5356 9.84386 9.77036 9.47299 8.875C9.10212 7.97965 9.00508 6.99442 9.19415 6.04391C9.38322 5.09341 9.8499 4.22031 10.5352 3.53503C11.2205 2.84976 12.0936 2.38308 13.0441 2.19401C13.9946 2.00494 14.9798 2.10198 15.8751 2.47285C16.7705 2.84372 17.5358 3.47176 18.0742 4.27756C18.6126 5.08336 18.9 6.03073 18.9 6.99986C18.8986 8.29899 18.3819 9.54452 17.4633 10.4631C16.5447 11.3818 15.2991 11.8985 14 11.8999ZM14 3.73261C13.3538 3.73261 12.7221 3.92423 12.1848 4.28324C11.6475 4.64225 11.2287 5.15252 10.9815 5.74953C10.7342 6.34654 10.6695 7.00348 10.7955 7.63726C10.9216 8.27105 11.2328 8.85322 11.6897 9.31015C12.1466 9.76708 12.7288 10.0783 13.3626 10.2043C13.9964 10.3304 14.6533 10.2657 15.2503 10.0184C15.8473 9.77111 16.3576 9.35234 16.7166 8.81504C17.0756 8.27775 17.2672 7.64606 17.2672 6.99986C17.2663 6.13361 16.9218 5.30311 16.3093 4.69058C15.6967 4.07806 14.8662 3.73353 14 3.73261ZM10.5 25.3749C10.5046 25.079 10.547 24.785 10.626 24.4999H7V20.1249C7.00139 18.965 7.46277 17.853 8.28294 17.0328C9.10311 16.2126 10.2151 15.7512 11.375 15.7499H15.3335C15.7826 15.1003 16.3265 14.5216 16.947 14.0331C16.8385 14.0261 16.7353 13.9999 16.625 13.9999H11.375C9.75112 14.0017 8.19428 14.6476 7.04602 15.7959C5.89776 16.9441 5.25185 18.501 5.25 20.1249V26.2499H10.5V25.3749ZM21.875 15.9249C20.7611 15.9249 19.6928 16.3674 18.9052 17.155C18.1175 17.9427 17.675 19.0109 17.675 20.1249C17.6806 20.5177 17.7419 20.9077 17.857 21.2834L14 25.3749V27.9999H18.025L21.5565 24.2934C21.6615 24.3004 21.7665 24.3249 21.875 24.3249C22.4266 24.3249 22.9727 24.2162 23.4823 24.0051C23.9918 23.7941 24.4548 23.4847 24.8448 23.0947C25.2349 22.7047 25.5442 22.2417 25.7553 21.7321C25.9664 21.2226 26.075 20.6764 26.075 20.1249C26.075 19.5733 25.9664 19.0272 25.7553 18.5176C25.5442 18.008 25.2349 17.545 24.8448 17.155C24.4548 16.765 23.9918 16.4556 23.4823 16.2446C22.9727 16.0335 22.4266 15.9249 21.875 15.9249ZM21.875 22.7499C21.575 22.7468 21.2777 22.6918 20.9965 22.5871L17.4755 26.2499H15.75V26.0696L19.8275 21.7471C19.4562 21.2877 19.2525 20.7155 19.25 20.1249C19.25 19.6057 19.404 19.0982 19.6924 18.6665C19.9808 18.2348 20.3908 17.8984 20.8705 17.6997C21.3501 17.501 21.8779 17.449 22.3871 17.5503C22.8963 17.6516 23.364 17.9016 23.7312 18.2687C24.0983 18.6358 24.3483 19.1035 24.4496 19.6127C24.5508 20.1219 24.4989 20.6497 24.3002 21.1294C24.1015 21.6091 23.765 22.019 23.3334 22.3075C22.9017 22.5959 22.3942 22.7499 21.875 22.7499ZM21 20.9999H22.75V19.2499H21V20.9999Z" fill="white"/>
</svg>
