<svg width="16" height="16" viewBox="0 0 16 16" fill="none" xmlns="http://www.w3.org/2000/svg">
<path fill-rule="evenodd" clip-rule="evenodd" d="M3 11.5V15H13V11.5C12.9978 9.56787 11.4321 8.00216 9.5 7.99995H6.5C4.56792 8.00216 3.0022 9.56787 3 11.5ZM6.5 8.99995H9.5C10.88 9.0016 11.9983 10.1199 12 11.5V14H4V11.5C4.00165 10.1199 5.11997 9.0016 6.5 8.99995ZM10.8 3.99995C10.8 2.45355 9.5464 1.19995 8 1.19995C6.4536 1.19995 5.2 2.45355 5.2 3.99995C5.2 5.54635 6.4536 6.79995 8 6.79995C9.54571 6.7983 10.7983 5.54566 10.8 3.99995ZM6.133 3.99995C6.133 2.96884 6.96888 2.13295 8 2.13295C9.03112 2.13295 9.867 2.96884 9.867 3.99995C9.867 5.03107 9.03112 5.86695 8 5.86695C6.96934 5.86585 6.1341 5.03061 6.133 3.99995Z" fill="#DDDDDD"/>
</svg>
