<svg width="13" height="31" viewBox="0 0 13 31" fill="none" xmlns="http://www.w3.org/2000/svg">
<path d="M8.70834 0.127703C8.51962 0.195583 7.54903 1.05089 6.52452 2.01481L4.6777 3.77974H3.81496C2.15687 3.77974 0.916668 4.51286 0.32353 5.84334C0.0134804 6.54931 0 6.64435 0 10.3643C0 13.9484 0.0134804 14.2064 0.283089 14.7902C0.64706 15.5776 1.42892 16.3379 2.14338 16.6094C2.43995 16.718 3.10049 16.8538 3.61275 16.9216L4.51594 17.0167L2.76348 18.6323C0.943628 20.3157 0.620099 20.7909 0.808824 21.5376C0.99755 22.3114 1.88726 22.8138 2.6152 22.583C2.77696 22.5287 3.31618 22.135 3.81496 21.6869C4.31373 21.2525 4.93383 20.8316 5.18996 20.7502C5.99878 20.5194 6.95589 20.5873 7.68383 20.9402C11.0809 22.5558 9.71937 27.7013 5.9853 27.3619C4.89339 27.2668 4.07108 26.7509 3.3701 25.7191C3.07353 25.2847 2.6826 24.8638 2.49388 24.7959C1.65809 24.4837 0.741422 25.1082 0.741422 25.9771C0.741422 26.9817 2.29167 28.8009 3.72059 29.4798C5.45956 30.2943 7.67035 30.1993 9.31496 29.2354C11.8762 27.7148 12.9816 24.3207 11.7819 21.5919C11.1483 20.1257 9.7733 18.8223 8.38481 18.3607L7.69731 18.1299L8.34437 17.5462C8.89707 17.0574 9.12624 16.9488 9.75982 16.8809C11.0539 16.7316 12.0784 16.0528 12.6446 14.9802C12.9277 14.4643 12.9412 14.2335 12.9816 10.5272C13.0221 6.64435 13.0221 6.6172 12.6985 5.91123C12.5233 5.51751 12.1998 5.02876 11.9841 4.81154C11.4583 4.28206 10.3664 3.77974 9.74633 3.77974C9.46325 3.77974 9.23408 3.73901 9.23408 3.69828C9.23408 3.65755 9.57109 3.30457 9.9755 2.91085C10.663 2.25919 10.7169 2.16415 10.7169 1.59395C10.7169 0.874401 10.4473 0.426382 9.82722 0.16843C9.31496 -0.04879 9.1532 -0.04879 8.70834 0.127703ZM9.18016 6.98376C10.0564 7.63542 10.1103 7.81191 10.1507 10.2014C10.1912 12.6858 10.0833 13.066 9.2206 13.6633C8.77575 13.962 8.68138 13.9756 6.37623 13.9348L3.97672 13.8941L3.47795 13.3782L2.96569 12.8759L2.92525 10.4593C2.89829 8.23278 2.91177 8.02914 3.1679 7.60827C3.66667 6.78011 4.28677 6.6172 6.69976 6.65792C8.58702 6.69865 8.84315 6.72581 9.18016 6.98376Z" fill="white"/>
</svg>
