<svg width="31" height="31" viewBox="0 0 31 31" fill="none" xmlns="http://www.w3.org/2000/svg">
<path d="M0 30.6226L2.15251 22.7589C0.824257 20.4571 0.126318 17.8478 0.127594 15.1722C0.131422 6.80714 6.93856 0 15.3023 0C19.3611 0.00127594 23.1711 1.58217 26.0368 4.45048C28.9013 7.31879 30.4784 11.1313 30.4771 15.1862C30.4733 23.5526 23.6661 30.3597 15.3023 30.3597C12.7632 30.3584 10.2611 29.7217 8.0448 28.5121L0 30.6226ZM8.41737 25.765C10.5558 27.0346 12.5974 27.7951 15.2972 27.7963C22.2486 27.7963 27.9112 22.1388 27.915 15.1837C27.9176 8.2145 22.2817 2.56464 15.3074 2.56209C8.35102 2.56209 2.69223 8.2196 2.68968 15.1735C2.68841 18.0124 3.52032 20.1382 4.91747 22.3621L3.64281 27.0167L8.41737 25.765ZM22.9465 18.7933C22.8521 18.6351 22.5994 18.5407 22.2192 18.3506C21.8403 18.1604 19.9761 17.243 19.6278 17.1167C19.2807 16.9904 19.0281 16.9266 18.7742 17.3068C18.5215 17.6858 17.7943 18.5407 17.5735 18.7933C17.3528 19.046 17.1308 19.0778 16.7518 18.8877C16.3729 18.6976 15.1505 18.2982 13.7023 17.0057C12.5757 16.0003 11.8139 14.7588 11.5932 14.3786C11.3724 13.9996 11.5702 13.7942 11.7591 13.6053C11.93 13.4356 12.138 13.1626 12.3281 12.9406C12.5208 12.7211 12.5833 12.5629 12.7109 12.309C12.8372 12.0564 12.7747 11.8343 12.679 11.6442C12.5833 11.4554 11.8254 9.58869 11.5103 8.8295C11.2015 8.09073 10.8889 8.19026 10.6566 8.17877L9.92936 8.16601C9.67673 8.16601 9.26587 8.26043 8.91882 8.64066C8.57176 9.02089 7.59184 9.93702 7.59184 11.8037C7.59184 13.6704 8.95072 15.4733 9.13956 15.726C9.32967 15.9786 11.8126 19.809 15.6162 21.4511C16.5209 21.8415 17.2277 22.075 17.7777 22.2498C18.6861 22.5382 19.5129 22.4974 20.1662 22.4004C20.8948 22.2919 22.4093 21.483 22.7258 20.5975C23.0422 19.7107 23.0422 18.9515 22.9465 18.7933Z" fill="#25D366"/>
</svg>
