<svg width="16" height="16" viewBox="0 0 16 16" fill="none" xmlns="http://www.w3.org/2000/svg">
<g clip-path="url(#clip0_84_685)">
<path d="M11 2.34201V6.00001H10V2.99601L5.617 1.07801C5.58023 1.06138 5.54035 1.05279 5.5 1.05279C5.45965 1.05279 5.41977 1.06138 5.383 1.07801L1.48 2.78501C1.33713 2.84805 1.21568 2.9513 1.13045 3.08216C1.04522 3.21302 0.999899 3.36584 1 3.52201V10.004L5.383 11.922C5.4199 11.9381 5.45973 11.9465 5.5 11.9465C5.54027 11.9465 5.5801 11.9381 5.617 11.922L6 11.754V12.842C5.83923 12.9117 5.66578 12.9473 5.49058 12.9466C5.31538 12.9459 5.14222 12.9089 4.982 12.838L0 10.658V3.52201C0.000320347 3.17155 0.1026 2.82876 0.294368 2.53542C0.486136 2.24209 0.759107 2.01089 1.08 1.87001L4.983 0.162006C5.14632 0.0904633 5.32269 0.0535278 5.501 0.0535278C5.67931 0.0535278 5.85568 0.0904633 6.019 0.162006L11 2.34201ZM12.896 8.47001L14.239 7.87701L15.107 8.73701L14.505 10.046C14.5517 10.142 14.5937 10.2407 14.631 10.342L16.001 10.872V12.128L14.631 12.658C14.5937 12.7593 14.5517 12.858 14.505 12.954L15.107 14.262L14.239 15.122L12.896 14.53C12.7993 14.5747 12.7 14.6147 12.598 14.65L12.098 16H10.876L10.346 14.627C10.2453 14.5897 10.1467 14.5477 10.05 14.501L8.742 15.102L7.882 14.235L8.474 12.892C8.42933 12.7947 8.38933 12.695 8.354 12.593L7.004 12.094V10.906L8.354 10.406C8.38933 10.3047 8.42933 10.2053 8.474 10.108L7.882 8.76501L8.742 7.89801L10.05 8.49901C10.146 8.45234 10.2447 8.41034 10.346 8.37301L10.876 7.00001H12.098L12.598 8.35001C12.6993 8.38534 12.7987 8.42534 12.896 8.47001ZM12.89 9.29201L12.583 9.15201C12.5079 9.11717 12.4312 9.08613 12.353 9.05901L12.018 8.94201L11.576 7.75001H11.391L10.923 8.95901L10.605 9.07701C10.5284 9.10439 10.4536 9.13646 10.381 9.17301L10.061 9.32901L8.905 8.79801L8.775 8.93101L9.298 10.116L9.154 10.425C9.11941 10.5009 9.08838 10.5783 9.061 10.657L8.942 10.988L7.754 11.428V11.572L8.942 12.012L9.061 12.342C9.089 12.422 9.119 12.5 9.154 12.575L9.298 12.884L8.774 14.069L8.905 14.202L10.061 13.671L10.381 13.827C10.4536 13.8636 10.5284 13.8956 10.605 13.923L10.923 14.041L11.391 15.25H11.576L12.018 14.058L12.353 13.941C12.433 13.914 12.512 13.881 12.589 13.847L12.894 13.709L14.074 14.23L14.206 14.1L13.676 12.945L13.83 12.627C13.8663 12.5531 13.8987 12.4773 13.927 12.4L14.043 12.082L15.25 11.614V11.386L14.043 10.918L13.927 10.6C13.8987 10.5227 13.8663 10.4469 13.83 10.373L13.676 10.055L14.206 8.90001L14.074 8.77001L12.89 9.29201ZM13 11.5C13 11.7967 12.912 12.0867 12.7472 12.3334C12.5824 12.58 12.3481 12.7723 12.074 12.8858C11.7999 12.9994 11.4983 13.0291 11.2074 12.9712C10.9164 12.9133 10.6491 12.7704 10.4393 12.5607C10.2296 12.3509 10.0867 12.0836 10.0288 11.7926C9.97094 11.5017 10.0006 11.2001 10.1142 10.926C10.2277 10.6519 10.42 10.4176 10.6666 10.2528C10.9133 10.088 11.2033 10 11.5 10C11.8978 10 12.2794 10.158 12.5607 10.4393C12.842 10.7207 13 11.1022 13 11.5ZM12 11H11V12H12V11Z" fill="#DDDDDD"/>
</g>
<defs>
<clipPath id="clip0_84_685">
<rect width="16" height="16" fill="white"/>
</clipPath>
</defs>
</svg>
