<svg width="149" height="50" viewBox="0 0 149 50" fill="none" xmlns="http://www.w3.org/2000/svg">
<path d="M14.6953 0.21257C14.3768 0.325592 12.7389 1.74966 11.0101 3.35456L7.89359 6.29311H6.43771C3.6397 6.29311 1.54687 7.51374 0.545954 9.72895C0.0227481 10.9044 0 11.0626 0 17.2562C0 23.2237 0.0227481 23.6532 0.47771 24.6251C1.09191 25.9362 2.4113 27.202 3.61695 27.6541C4.11741 27.8349 5.23206 28.061 6.09649 28.174L7.62061 28.3322L4.66336 31.0221C1.59237 33.8251 1.04641 34.6162 1.36489 35.8594C1.68336 37.1479 3.18473 37.9842 4.41313 37.6C4.68611 37.5095 5.59603 36.854 6.43771 36.1081C7.27939 35.3847 8.3258 34.684 8.75802 34.5484C10.1229 34.1641 11.738 34.2771 12.9664 34.8648C18.6989 37.5547 16.4014 46.1217 10.1002 45.5566C8.25756 45.3984 6.86993 44.5395 5.68703 42.8215C5.18657 42.0982 4.52687 41.3975 4.2084 41.2844C2.79802 40.7645 1.25115 41.8043 1.25115 43.251C1.25115 44.9237 3.86718 47.9527 6.27848 49.0829C9.21298 50.4392 12.9437 50.2809 15.7189 48.676C20.0411 46.1444 21.9064 40.4933 19.8818 35.9498C18.8127 33.5086 16.4924 31.3386 14.1493 30.57L12.9892 30.1858L14.0811 29.2138C15.0137 28.4 15.4005 28.2192 16.4696 28.1062C18.6534 27.8575 20.3823 26.7273 21.3377 24.9416C21.8154 24.0826 21.8382 23.6984 21.9064 17.5274C21.9747 11.0626 21.9747 11.0174 21.4287 9.84197C21.133 9.18645 20.587 8.3727 20.2231 8.01103C19.3359 7.12947 17.4933 6.29311 16.4469 6.29311C15.9692 6.29311 15.5824 6.2253 15.5824 6.15748C15.5824 6.08967 16.1512 5.50196 16.8336 4.84644C17.9937 3.76144 18.0847 3.6032 18.0847 2.65383C18.0847 1.4558 17.6298 0.709862 16.5834 0.280384C15.7189 -0.0812836 15.446 -0.0812836 14.6953 0.21257ZM15.4915 11.6277C16.9701 12.7127 17.0611 13.0066 17.1293 16.9849C17.1976 21.1215 17.0156 21.7544 15.5597 22.749C14.809 23.2463 14.6498 23.2689 10.7599 23.2011L6.71069 23.1333L5.86901 22.2743L5.00458 21.4379L4.93634 17.4144C4.89084 13.7073 4.91359 13.3682 5.3458 12.6675C6.18748 11.2886 7.2339 11.0174 11.3058 11.0852C14.4905 11.153 14.9228 11.1982 15.4915 11.6277Z" fill="black"/>
<path d="M36.1238 6.08977C32.0746 6.7679 28.6624 9.57082 27.1838 13.4587C26.5468 15.1089 26.3421 18.0022 26.7288 19.6523C28.0255 25.1903 33.2803 29.0783 38.8081 28.581C44.7681 28.0385 49.2722 23.2238 49.2494 17.3919C49.2267 15.2445 48.9537 14.0239 48.0438 12.1703C46.4969 9.02832 43.1302 6.63227 39.536 6.08977C37.7161 5.81852 37.7844 5.81852 36.1238 6.08977ZM40.6734 11.7408C41.9928 12.3963 42.8117 13.2101 43.5169 14.5437C44.3358 16.0808 44.3813 18.5899 43.6079 20.014C42.425 22.2744 40.4232 23.4724 37.9436 23.4724C32.8481 23.4498 29.8908 18.0474 32.6888 13.8882C34.3949 11.3113 37.8981 10.362 40.6734 11.7408Z" fill="black"/>
<path d="M51.6156 6.15765C51.2288 6.33848 50.7284 6.70015 50.5237 6.99401C49.7502 8.10161 50.0232 8.96058 54.0951 18.3865C57.6438 26.5919 58.076 27.4508 58.804 27.9481C59.8731 28.6715 61.1925 28.5358 61.9432 27.6091C62.6256 26.7727 70.178 9.16401 70.178 8.41807C70.178 7.64953 69.5638 6.63234 68.8814 6.27067C68.1079 5.8638 66.8113 5.95421 66.1289 6.45151C65.6739 6.79057 64.8777 8.50849 62.8986 13.2554C61.4655 16.759 60.2143 19.6298 60.1461 19.6298C60.0551 19.6298 58.8495 16.8494 57.4391 13.4588C56.0287 10.0908 54.7093 7.12963 54.5046 6.88099C54.1634 6.47411 52.8895 5.84119 52.5027 5.84119C52.4117 5.8638 52.0023 5.99942 51.6156 6.15765Z" fill="black"/>
<path d="M80.0734 6.08976C77.935 6.40622 75.2735 7.83028 73.7266 9.48039C71.5201 11.8312 70.5874 14.2273 70.5874 17.3693C70.6102 19.6071 71.1789 21.7093 72.2253 23.2464C75.5465 28.1967 81.5292 29.9598 86.7613 27.5412C87.5575 27.1569 88.2399 26.8856 88.2627 26.9082C88.7859 27.835 89.1953 28.2193 89.855 28.4453C90.856 28.7844 92.0389 28.4227 92.6986 27.609C93.1308 27.0665 93.1535 26.7048 93.1535 21.2346C93.1535 14.8602 93.0398 14.069 91.7886 11.7634C90.492 9.32216 87.512 7.01653 84.8505 6.33841C83.3946 5.97674 81.552 5.86372 80.0734 6.08976ZM83.7586 11.3791C85.1234 11.786 86.8295 13.2101 87.512 14.4985C88.1034 15.6513 88.2854 17.7309 87.9215 19.0194C87.512 20.5113 86.1926 22.0935 84.7595 22.8395C82.3937 24.0827 78.936 23.5176 77.3436 21.6189C75.0005 18.8611 75.0915 15.3801 77.5711 12.9388C79.3454 11.1757 81.3473 10.6784 83.7586 11.3791Z" fill="black"/>
<path d="M106.438 6.18C103.14 6.76771 99.7729 9.18636 98.2261 12.0797C96.8612 14.6566 96.7019 15.5834 96.6792 21.3248C96.6792 27.1567 96.7474 27.428 98.2716 28.1513C98.9313 28.4678 99.2042 28.4678 99.9777 28.2417C101.593 27.767 101.661 27.4958 101.798 21.3248C101.934 15.3347 101.98 15.0635 103.64 13.2099C104.596 12.1249 106.825 11.0399 108.121 11.0399C109.987 11.0399 111.352 9.88709 111.352 8.28219C111.352 7.35542 110.533 6.33823 109.6 6.08958C108.576 5.79573 108.508 5.79573 106.438 6.18Z" fill="black"/>
<path d="M121.475 6.08993C118.268 6.54202 114.56 9.1641 113.013 12.0574C111.625 14.6795 111.489 15.5837 111.466 21.3252C111.466 26.0043 111.511 26.6146 111.875 27.1797C112.489 28.1064 113.718 28.5585 114.81 28.2421C116.379 27.7674 116.448 27.4735 116.584 21.3252C116.698 16.2392 116.721 15.8324 117.221 14.9508C118.449 12.6452 120.292 11.3793 122.908 11.0629C123.773 10.9498 124.728 10.7012 125.046 10.4978C126.753 9.39015 126.343 6.60983 124.387 6.08993C123.431 5.81868 123.386 5.81868 121.475 6.08993Z" fill="black"/>
<path d="M135.67 6.06721C129.482 6.99398 125.024 13.0971 126.116 19.1551C126.957 23.8793 130.733 27.6316 135.488 28.468C140.743 29.3948 146.339 26.185 148.09 21.1894C150.957 13.1197 144.132 4.80137 135.67 6.06721ZM139.264 11.3792C140.629 11.7861 142.335 13.2101 143.017 14.4986C144.087 16.6008 143.723 19.5845 142.176 21.3929C139.787 24.1506 135.101 24.1958 132.713 21.4833C131.598 20.2401 131.143 19.042 131.143 17.3693C131.143 14.702 132.826 12.306 135.283 11.4696C136.762 10.9497 137.763 10.9271 139.264 11.3792Z" fill="black"/>
<path d="M28.7078 33.8027C28.5031 33.9836 28.5031 41.1717 28.685 41.6464C28.7533 41.8498 28.958 42.0081 29.14 42.0081C29.3902 42.0081 29.4585 41.3525 29.504 38.8887L29.5722 35.7919L31.1191 38.7983C32.0063 40.5162 32.7797 41.782 32.9389 41.7142C33.0754 41.669 33.8716 40.2675 34.7133 38.5948L36.2374 35.5659L36.3284 38.7304C36.3739 41.3525 36.4649 41.895 36.7379 41.895C37.0336 41.895 37.0791 41.2621 37.1473 37.7585C37.1928 34.2096 37.1473 33.6445 36.8516 33.6445C36.6469 33.6445 35.8507 34.9555 34.7133 37.1934L32.9162 40.7648L31.1418 37.1934C29.4812 33.9157 29.1173 33.3958 28.7078 33.8027Z" fill="black"/>
<path d="M66.652 33.9158C66.5837 34.0966 66.561 35.9501 66.5837 38.0523C66.652 41.2847 66.6975 41.8951 66.9932 41.8951C67.2434 41.8951 67.3572 41.6012 67.4027 40.8779C67.4709 39.9059 67.7666 39.2956 68.1533 39.2956C68.2443 39.2956 68.813 39.9059 69.4045 40.6518C70.3827 41.8951 71.0879 42.3697 71.0879 41.7594C71.0879 41.6464 70.5874 40.9005 69.9504 40.1319L68.813 38.7305L69.9504 37.6002C70.5874 36.9673 71.0879 36.3796 71.0879 36.2892C71.0879 35.8371 70.3599 36.2666 68.995 37.4872L67.4709 38.8661L67.4027 36.3344C67.3572 34.5487 67.2434 33.7575 67.0614 33.6897C66.9022 33.6445 66.7202 33.7575 66.652 33.9158Z" fill="black"/>
<path d="M110.669 37.3739C110.669 40.8323 110.692 41.1262 111.147 41.5783C111.397 41.8269 111.83 42.0077 112.08 41.9625C112.649 41.8947 112.921 41.3296 112.421 41.3296C112.216 41.3296 111.898 41.1714 111.716 40.9679C111.42 40.6741 111.352 39.996 111.352 37.1252C111.352 34.1867 111.306 33.6442 111.011 33.6442C110.715 33.6442 110.669 34.2093 110.669 37.3739Z" fill="black"/>
<path d="M89.2636 34.5939C89.2636 34.7521 89.2181 35.1816 89.2181 35.5659C89.1726 36.0857 89.0588 36.2666 88.6721 36.3118C88.3764 36.357 88.1489 36.5378 88.1489 36.6961C88.1489 36.8543 88.3764 37.0351 88.6721 37.0803C89.2408 37.1481 89.2181 37.1029 89.2636 39.2955C89.2863 40.6744 89.3546 40.9683 89.855 41.443C90.1963 41.8046 90.674 42.0081 91.1062 42.0081C92.0161 42.0081 92.0161 41.4203 91.1062 41.2169C90.1963 41.0135 89.9688 40.5162 89.9688 38.64V37.0351H90.7877C91.8114 37.0351 91.7431 36.4926 90.6967 36.4022C89.9915 36.3344 89.9688 36.2892 89.9688 35.3172C89.9688 34.5939 89.8778 34.3226 89.6276 34.3226C89.4456 34.3226 89.2863 34.4582 89.2636 34.5939Z" fill="black"/>
<path d="M45.3596 36.5151C43.5625 37.6227 43.5625 40.7421 45.3824 41.6689C46.3151 42.1435 47.7027 42.0983 48.4079 41.5558L48.9766 41.1037L49.0903 41.5784C49.1586 41.8497 49.3633 42.0079 49.5225 41.9627C49.9775 41.8045 50.0458 38.8433 49.6135 37.8487C48.9766 36.3343 46.77 35.6335 45.3596 36.5151ZM48.3624 37.4645C48.8856 37.9844 49.0221 38.3234 49.0221 39.0694C49.0221 41.375 46.0876 42.2114 45.0412 40.1996C43.8355 37.8939 46.5425 35.6787 48.3624 37.4645Z" fill="black"/>
<path d="M56.6199 36.4248C56.5744 36.583 56.5516 37.8941 56.5744 39.3181C56.6199 41.4203 56.7108 41.895 56.9838 41.895C57.2568 41.895 57.3478 41.5107 57.3933 40.0867C57.416 39.0921 57.4843 38.0523 57.5525 37.8037C57.6663 37.3064 58.4852 36.8769 59.5544 36.7639C59.8956 36.7187 60.2141 36.583 60.2368 36.47C60.305 36.0857 58.8719 36.0857 58.1667 36.4474C57.5753 36.7639 57.4615 36.7639 57.3478 36.47C57.1886 36.0405 56.7791 36.0405 56.6199 36.4248Z" fill="black"/>
<path d="M78.3447 36.47C77.4347 36.9673 76.957 37.8715 76.957 39.0695C76.957 40.8778 78.0944 42.0081 79.8915 42.0081C80.847 42.0081 81.8024 41.6012 81.9616 41.1491C82.0526 40.8326 81.1882 40.7648 80.9834 41.1039C80.9152 41.2169 80.4375 41.3299 79.937 41.3299C79.2318 41.3299 78.8679 41.1717 78.3447 40.6744C77.139 39.4764 77.3665 39.2956 80.0735 39.2956C82.3256 39.2956 82.4621 39.2729 82.4621 38.8435C82.4621 36.8091 80.1645 35.4754 78.3447 36.47ZM80.9152 37.2612C81.2337 37.5098 81.5521 37.9167 81.6204 38.1653C81.7341 38.5948 81.6431 38.6174 79.7096 38.6174C78.4129 38.6174 77.685 38.527 77.685 38.3688C77.685 38.2332 77.9807 37.8263 78.3447 37.4646C79.1408 36.6735 80.0963 36.6056 80.9152 37.2612Z" fill="black"/>
<path d="M99.5681 36.5826C98.4079 37.306 98.1577 38.1649 98.1577 41.5556C98.1577 44.2681 98.2032 44.5167 98.5672 44.4489C98.8857 44.3811 98.9766 44.0872 99.0221 42.731L99.0904 41.0809L99.6818 41.5556C100.387 42.0981 101.752 42.1433 102.707 41.6686C103.595 41.2165 104.072 40.2445 104.072 38.9561C104.072 38.1197 103.936 37.7806 103.322 37.1251C102.343 36.0627 100.751 35.8367 99.5681 36.5826ZM102.23 37.1251C103.322 37.6902 103.663 39.0013 103.049 40.1993C102.389 41.4651 100.933 41.7138 99.7728 40.7418C99.1814 40.2445 99.0676 39.9959 99.0676 39.1369C99.0676 38.3231 99.2041 38.0067 99.7273 37.4642C100.478 36.7409 101.251 36.6278 102.23 37.1251Z" fill="black"/>
<path d="M119.518 36.6509C117.949 37.6907 117.789 39.8607 119.2 41.2621C119.814 41.8724 120.132 42.0081 120.951 42.0081C121.52 42.0081 122.225 41.8272 122.68 41.556C123.408 41.1039 123.408 41.1039 123.408 41.556C123.408 42.2115 124.068 42.0985 124.227 41.4203C124.432 40.584 124.159 38.2784 123.749 37.4872C123.044 36.131 120.929 35.7015 119.518 36.6509ZM122.134 37.0351C122.953 37.329 123.499 38.5722 123.317 39.5894C122.84 42.1889 119.086 41.7142 119.086 39.0695C119.086 38.3236 119.223 37.9845 119.746 37.4646C120.451 36.7865 121.133 36.6509 122.134 37.0351Z" fill="black"/>
<path d="M131.802 36.6509C129.482 38.2105 130.642 42.0081 133.44 42.0081C134.487 42.0081 135.465 41.6012 135.465 41.1491C135.465 40.9231 135.328 40.8778 134.964 40.9909C134.669 41.0813 134.055 41.1943 133.6 41.2621C132.872 41.3525 132.644 41.2621 132.053 40.697C131.097 39.7476 131.097 38.414 132.03 37.4646C132.826 36.6961 133.691 36.6056 134.646 37.2386C135.306 37.668 135.692 37.668 135.692 37.2386C135.692 36.8543 134.214 36.131 133.395 36.131C132.917 36.131 132.257 36.357 131.802 36.6509Z" fill="black"/>
<path d="M143.381 36.4924C141.561 37.4644 141.63 40.742 143.472 41.6914C144.337 42.1434 146.248 42.0078 146.794 41.4879C147.294 40.9906 146.976 40.742 146.27 41.0584C145.201 41.5331 144.132 41.3975 143.404 40.6742C142.198 39.4761 142.426 39.2953 145.133 39.2953H147.521V38.6624C147.521 37.826 146.748 36.628 146.02 36.3568C145.201 36.0403 144.109 36.0855 143.381 36.4924ZM146.179 37.4644C146.543 37.826 146.839 38.2329 146.839 38.3685C146.839 38.5268 146.111 38.6172 144.792 38.6172C143.472 38.6172 142.744 38.5268 142.744 38.3685C142.744 37.826 144.086 36.8088 144.792 36.8088C145.292 36.8088 145.724 37.0123 146.179 37.4644Z" fill="black"/>
</svg>
