<svg width="16" height="16" viewBox="0 0 16 16" fill="none" xmlns="http://www.w3.org/2000/svg">
<path d="M7.47 0C3.33426 0 0 3.36426 0 7.5C0 11.6357 3.33426 15 7.47 15C11.6057 15 14.97 11.6357 14.97 7.5C14.97 3.36426 11.6057 0 7.47 0ZM7.97 1.02533C8.34286 1.05396 8.70572 1.11542 9.05844 1.20453L7.97 2.29297V1.02533ZM7.97 3.70703L10.1108 1.56622C10.6878 1.82409 11.2198 2.16284 11.6936 2.56933L7.97 6.29296V3.70703ZM12.4007 3.27637C12.8072 3.75019 13.1459 4.28223 13.4038 4.85919L11.263 7H8.67702L12.4007 3.27637ZM13.7655 5.91156C13.8546 6.26428 13.916 6.62714 13.9447 7H12.677L13.7655 5.91156ZM7.47 14C3.88602 14 0.97 11.084 0.97 7.5C0.97 4.08478 3.61948 1.28229 6.97 1.02533V7.97H13.9447C13.6877 11.3205 10.8852 14 7.47 14Z" fill="#DDDDDD"/>
</svg>
