<svg width="14" height="14" viewBox="0 0 14 14" fill="none" xmlns="http://www.w3.org/2000/svg">
<path fill-rule="evenodd" clip-rule="evenodd" d="M13.125 1.75C13.125 1.51794 13.0328 1.29538 12.8687 1.13128C12.7046 0.967187 12.4821 0.875 12.25 0.875H1.75C1.51794 0.875 1.29538 0.967187 1.13128 1.13128C0.967187 1.29538 0.875 1.51794 0.875 1.75V12.25C0.875 12.4821 0.967187 12.7046 1.13128 12.8687C1.29538 13.0328 1.51794 13.125 1.75 13.125H12.25C12.4821 13.125 12.7046 13.0328 12.8687 12.8687C13.0328 12.7046 13.125 12.4821 13.125 12.25V1.75ZM0 1.75C0 1.28587 0.184375 0.840752 0.512563 0.512563C0.840752 0.184375 1.28587 0 1.75 0L12.25 0C12.7141 0 13.1592 0.184375 13.4874 0.512563C13.8156 0.840752 14 1.28587 14 1.75V12.25C14 12.7141 13.8156 13.1592 13.4874 13.4874C13.1592 13.8156 12.7141 14 12.25 14H1.75C1.28587 14 0.840752 13.8156 0.512563 13.4874C0.184375 13.1592 0 12.7141 0 12.25V1.75ZM5.12225 9.45263C5.04022 9.53478 4.92891 9.58097 4.81281 9.58106C4.69671 9.58114 4.58534 9.5351 4.50319 9.45306C4.42104 9.37103 4.37484 9.25972 4.37476 9.14362C4.37467 9.02753 4.42072 8.91615 4.50275 8.834L8.08763 5.25H5.66562C5.54959 5.25 5.43831 5.20391 5.35627 5.12186C5.27422 5.03981 5.22812 4.92853 5.22812 4.8125C5.22812 4.69647 5.27422 4.58519 5.35627 4.50314C5.43831 4.42109 5.54959 4.375 5.66562 4.375H9.14375C9.25978 4.375 9.37106 4.42109 9.45311 4.50314C9.53516 4.58519 9.58125 4.69647 9.58125 4.8125V8.29063C9.58125 8.40666 9.53516 8.51794 9.45311 8.59998C9.37106 8.68203 9.25978 8.72813 9.14375 8.72813C9.02772 8.72813 8.91644 8.68203 8.83439 8.59998C8.75234 8.51794 8.70625 8.40666 8.70625 8.29063V5.86863L5.12225 9.45263Z" fill="#00619B"/>
</svg>
