<svg width="16" height="16" viewBox="0 0 16 16" fill="none" xmlns="http://www.w3.org/2000/svg">
<path d="M1 10.5V12H5V13H0V10.5C0 8.57 1.57 7 3.5 7H6.5C6.834 7 7.152 7.062 7.458 7.15C7.17013 7.41045 6.9119 7.70188 6.688 8.019C6.625 8.014 6.564 8 6.5 8H3.5C2.8372 8.00079 2.20178 8.26444 1.73311 8.73311C1.26444 9.20178 1.00079 9.8372 1 10.5ZM7.99 3C7.99 4.654 6.654 6 5 6C3.346 6 2 4.654 2 3C2 1.346 3.346 0 5 0C6.654 0 7.99 1.346 7.99 3ZM7 3C7 1.897 6.103 1 5 1C3.897 1 3 1.897 3 3C3 4.103 3.897 5 5 5C6.103 5 7 4.103 7 3ZM9 7.592V8.74C8.67733 9.02173 8.41846 9.36905 8.24067 9.75877C8.06288 10.1485 7.97026 10.5716 7.969 11C7.969 11.029 7.976 11.056 7.977 11.084C8.571 11.284 9 11.838 9 12.5C9 13.33 8.33 14 7.5 14C6.67 14 6 13.33 6 12.5C6.00009 12.1835 6.10093 11.8753 6.28792 11.62C6.4749 11.3647 6.73832 11.1756 7.04 11.08C7.039 11.052 7.031 11.027 7.031 11C7.031 9.544 7.828 8.282 9 7.592ZM7 12V13H8V12H7ZM16 12.5L15.997 12.525C15.992 12.9185 15.832 13.294 15.5517 13.5702C15.2714 13.8464 14.8935 14.0008 14.5 14C14.243 14 14.005 13.93 13.793 13.816C13.0513 14.5548 12.0469 14.9695 11 14.969C10.3277 14.9645 9.66794 14.7871 9.084 14.454L9.771 13.765C10.3303 14.0175 10.9535 14.0927 11.5568 13.9806C12.1601 13.8685 12.7147 13.5745 13.146 13.138C13.0506 12.9388 13.0008 12.7209 13 12.5C13 11.67 13.67 11 14.5 11C15.33 11 16 11.67 16 12.5ZM15 12H14V13H15V12ZM13 7.5C13 7.53 12.993 7.558 12.991 7.587C13.4402 7.84908 13.8333 8.19707 14.148 8.6111C14.4627 9.02512 14.6927 9.49707 14.825 10H13.848C13.6277 9.36782 13.2043 8.82633 12.644 8.46C12.5046 8.62843 12.3299 8.76411 12.1322 8.85744C11.9344 8.95076 11.7186 8.99943 11.5 9C10.67 9 10 8.33 10 7.5C10 6.67 10.67 6 11.5 6C12.33 6 13 6.67 13 7.5ZM12 7H11V8H12V7Z" fill="#DDDDDD"/>
</svg>
