<svg width="16" height="16" viewBox="0 0 16 16" fill="none" xmlns="http://www.w3.org/2000/svg">
<path d="M6.36737 13.5306L11.2424 8.53063C11.3105 8.46095 11.3646 8.37815 11.4015 8.28699C11.4384 8.19583 11.4574 8.09809 11.4574 7.99937C11.4574 7.90066 11.4384 7.80292 11.4015 7.71176C11.3646 7.6206 11.3105 7.5378 11.2424 7.46812L6.36737 2.46813C6.22999 2.32723 6.04368 2.24807 5.8494 2.24807C5.65512 2.24807 5.4688 2.32723 5.33143 2.46813C5.19406 2.60902 5.11688 2.80012 5.11688 2.99938C5.11688 3.19863 5.19406 3.38973 5.33143 3.53063L9.68907 8L5.33082 12.4694C5.19345 12.6103 5.11627 12.8014 5.11627 13.0006C5.11627 13.1999 5.19345 13.391 5.33082 13.5319C5.4682 13.6728 5.65452 13.7519 5.84879 13.7519C6.04307 13.7519 6.22939 13.6728 6.36676 13.5319L6.36737 13.5306Z" fill="white"/>
</svg>
