<svg width="24" height="24" viewBox="0 0 24 24" fill="none" xmlns="http://www.w3.org/2000/svg">
<path fill-rule="evenodd" clip-rule="evenodd" d="M13.3334 1.75691C13.9501 1.50146 14.6287 1.43463 15.2834 1.56485C15.9381 1.69508 16.5395 2.01651 17.0115 2.48852C17.4835 2.96052 17.8049 3.56189 17.9352 4.21657C18.0654 4.87126 17.9985 5.54986 17.7431 6.16656C17.4876 6.78326 17.0551 7.31036 16.5 7.68121C15.945 8.05206 15.2925 8.25 14.625 8.25H11.25V4.875C11.25 4.20749 11.4479 3.55497 11.8188 2.99995C12.1896 2.44494 12.7167 2.01235 13.3334 1.75691ZM14.9908 3.03603C14.6271 2.96368 14.2501 3.00081 13.9075 3.14273C13.5649 3.28464 13.272 3.52497 13.066 3.83331C12.86 4.14165 12.75 4.50416 12.75 4.875V6.75H14.625C14.9958 6.75 15.3584 6.64003 15.6667 6.43401C15.975 6.22798 16.2154 5.93514 16.3573 5.59253C16.4992 5.24992 16.5363 4.87292 16.464 4.50921C16.3916 4.14549 16.213 3.8114 15.9508 3.54918C15.6886 3.28695 15.3545 3.10838 14.9908 3.03603Z" fill="#21272A"/>
<path fill-rule="evenodd" clip-rule="evenodd" d="M10.0925 3.14273C9.74992 3.00081 9.37292 2.96368 9.00921 3.03603C8.64549 3.10838 8.3114 3.28695 8.04918 3.54918C7.78695 3.8114 7.60838 4.14549 7.53603 4.50921C7.46368 4.87292 7.50081 5.24992 7.64273 5.59253C7.78464 5.93514 8.02497 6.22798 8.33331 6.43401C8.64165 6.64003 9.00416 6.75 9.375 6.75H11.25V4.875C11.25 4.50416 11.14 4.14165 10.934 3.83331C10.728 3.52497 10.4351 3.28464 10.0925 3.14273ZM12 7.5C12.75 7.5 12.75 7.49999 12.75 7.49998V4.875C12.75 4.20749 12.5521 3.55497 12.1812 2.99995C11.8104 2.44494 11.2833 2.01235 10.6666 1.75691C10.0499 1.50146 9.37126 1.43463 8.71657 1.56485C8.06189 1.69508 7.46052 2.01651 6.98852 2.48852C6.51651 2.96052 6.19508 3.56189 6.06485 4.21657C5.93463 4.87126 6.00146 5.54986 6.25691 6.16656C6.51235 6.78326 6.94494 7.31036 7.49995 7.68121C8.05497 8.05206 8.70749 8.25 9.375 8.25H12.75V7.49998L12 7.5Z" fill="#21272A"/>
<path fill-rule="evenodd" clip-rule="evenodd" d="M4.5 8.25C4.08579 8.25 3.75 8.58579 3.75 9V11.25C3.75 11.6642 4.08579 12 4.5 12H19.5C19.9142 12 20.25 11.6642 20.25 11.25V9C20.25 8.58579 19.9142 8.25 19.5 8.25H4.5ZM2.25 9C2.25 7.75736 3.25736 6.75 4.5 6.75H19.5C20.7426 6.75 21.75 7.75736 21.75 9V11.25C21.75 12.4926 20.7426 13.5 19.5 13.5H4.5C3.25736 13.5 2.25 12.4926 2.25 11.25V9Z" fill="#21272A"/>
<path fill-rule="evenodd" clip-rule="evenodd" d="M4.5 12C4.91421 12 5.25 12.3358 5.25 12.75V19.5C5.25 19.8978 5.40804 20.2794 5.68934 20.5607C5.97064 20.842 6.35218 21 6.75 21H17.25C17.6478 21 18.0294 20.842 18.3107 20.5607C18.592 20.2794 18.75 19.8978 18.75 19.5V12.75C18.75 12.3358 19.0858 12 19.5 12C19.9142 12 20.25 12.3358 20.25 12.75V19.5C20.25 20.2956 19.9339 21.0587 19.3713 21.6213C18.8087 22.1839 18.0456 22.5 17.25 22.5H6.75C5.95435 22.5 5.19129 22.1839 4.62868 21.6213C4.06607 21.0587 3.75 20.2956 3.75 19.5V12.75C3.75 12.3358 4.08579 12 4.5 12Z" fill="#21272A"/>
<path fill-rule="evenodd" clip-rule="evenodd" d="M12 6.75C12.4142 6.75 12.75 7.08579 12.75 7.5V21.75C12.75 22.1642 12.4142 22.5 12 22.5C11.5858 22.5 11.25 22.1642 11.25 21.75V7.5C11.25 7.08579 11.5858 6.75 12 6.75Z" fill="#21272A"/>
</svg>
