<svg width="24" height="24" viewBox="0 0 24 24" fill="none" xmlns="http://www.w3.org/2000/svg">
<g clip-path="url(#clip0_112_285)">
<path fill-rule="evenodd" clip-rule="evenodd" d="M10.25 2H3.65C2.73923 2.00121 2.00121 2.73923 2 3.65V10.25C2.00121 11.1608 2.73923 11.8988 3.65 11.9H10.25C11.1608 11.8988 11.8988 11.1608 11.9 10.25V3.65C11.8988 2.73923 11.1608 2.00121 10.25 2ZM10.8 10.25C10.7994 10.5535 10.5535 10.7994 10.25 10.8H3.65C3.34649 10.7994 3.10061 10.5535 3.1 10.25V3.65C3.10061 3.34649 3.34649 3.10061 3.65 3.1H10.25C10.5535 3.10061 10.7994 3.34649 10.8 3.65V10.25ZM22.35 2H15.75C14.8392 2.00121 14.1012 2.73923 14.1 3.65V10.25C14.1012 11.1608 14.8392 11.8988 15.75 11.9H22.35C23.2608 11.8988 23.9988 11.1608 24 10.25V3.65C23.9988 2.73923 23.2608 2.00121 22.35 2ZM22.9 10.25C22.8994 10.5535 22.6535 10.7994 22.35 10.8H15.75C15.4465 10.7994 15.2006 10.5535 15.2 10.25V3.65C15.2006 3.34649 15.4465 3.10061 15.75 3.1H22.35C22.6535 3.10061 22.8994 3.34649 22.9 3.65V10.25ZM10.25 14.1H3.65C2.73923 14.1012 2.00121 14.8392 2 15.75V22.35C2.00121 23.2608 2.73923 23.9988 3.65 24H10.25C11.1608 23.9988 11.8988 23.2608 11.9 22.35V15.75C11.8988 14.8392 11.1608 14.1012 10.25 14.1ZM10.8 22.35C10.7994 22.6535 10.5535 22.8994 10.25 22.9H3.65C3.34649 22.8994 3.10061 22.6535 3.1 22.35V15.75C3.10061 15.4465 3.34649 15.2006 3.65 15.2H10.25C10.5535 15.2006 10.7994 15.4465 10.8 15.75V22.35ZM22.35 14.1H15.75C14.8392 14.1012 14.1012 14.8392 14.1 15.75V22.35C14.1012 23.2608 14.8392 23.9988 15.75 24H22.35C23.2608 23.9988 23.9988 23.2608 24 22.35V15.75C23.9988 14.8392 23.2608 14.1012 22.35 14.1ZM22.9 22.35C22.8994 22.6535 22.6535 22.8994 22.35 22.9H15.75C15.4465 22.8994 15.2006 22.6535 15.2 22.35V15.75C15.2006 15.4465 15.4465 15.2006 15.75 15.2H22.35C22.6535 15.2006 22.8994 15.4465 22.9 15.75V22.35Z" fill="white" stroke="white" stroke-width="0.4"/>
</g>
<defs>
<clipPath id="clip0_112_285">
<rect width="24" height="24" fill="white"/>
</clipPath>
</defs>
</svg>
