<svg width="16" height="16" viewBox="0 0 16 16" fill="none" xmlns="http://www.w3.org/2000/svg">
<path fill-rule="evenodd" clip-rule="evenodd" d="M4 10.0001V12.0001C4 12.5524 4.44772 13.0001 5 13.0001H8C8.55228 13.0001 9 12.5524 9 12.0001V11.5361L12.886 13.7801C13.3223 14.0315 13.8596 14.0311 14.2956 13.7791C14.7316 13.5271 15.0001 13.0617 15 12.5581V3.44207C15.0001 2.93847 14.7316 2.47304 14.2956 2.22101C13.8596 1.96899 13.3223 1.96862 12.886 2.22007C6.136 6.11707 9.668 4.08007 6.571 5.86707C6.419 5.95476 6.24648 6.00065 6.071 6.00007H2C1.44772 6.00007 1 6.44778 1 7.00007V9.00007C1 9.55235 1.44772 10.0001 2 10.0001H6.071C6.24648 9.99949 6.419 10.0454 6.571 10.1331L8 10.9581V12.0001H5V10.0001H4ZM6.071 9.00007H2.01L2 7.00007H6.071C6.42199 7.00035 6.76687 6.90827 7.071 6.73307L13.387 3.08707C13.4486 3.051 13.5186 3.03201 13.59 3.03207C13.6619 3.03246 13.7325 3.0514 13.795 3.08707C13.9215 3.16059 13.9996 3.29572 14 3.44207V12.5581C13.9996 12.7044 13.9215 12.8395 13.795 12.9131C13.7325 12.9487 13.6619 12.9677 13.59 12.9681C13.5191 12.9681 13.4494 12.9495 13.388 12.9141L7.07 9.26707C6.76616 9.09203 6.42165 8.99995 6.071 9.00007Z" fill="#DDDDDD"/>
</svg>
