<svg width="16" height="16" viewBox="0 0 16 16" fill="none" xmlns="http://www.w3.org/2000/svg">
<path d="M11 2.28848V5.94648H10V2.94248L5.617 1.02448C5.58023 1.00786 5.54035 0.999258 5.5 0.999258C5.45965 0.999258 5.41977 1.00786 5.383 1.02448L1.48 2.73148C1.33713 2.79453 1.21568 2.89777 1.13045 3.02863C1.04522 3.15949 0.999899 3.31231 1 3.46848V9.95048L5.383 11.8685C5.4199 11.8846 5.45973 11.8929 5.5 11.8929C5.54027 11.8929 5.5801 11.8846 5.617 11.8685L6 11.7005V12.7885C5.83923 12.8581 5.66578 12.8937 5.49058 12.893C5.31538 12.8923 5.14222 12.8554 4.982 12.7845L0 10.6045V3.46848C0.000320347 3.11802 0.1026 2.77523 0.294368 2.4819C0.486136 2.18856 0.759107 1.95736 1.08 1.81648L4.983 0.108479C5.14632 0.0369355 5.32269 0 5.501 0C5.67931 0 5.85568 0.0369355 6.019 0.108479L11 2.28848ZM12.896 8.41648L14.239 7.82348L15.107 8.68348L14.505 9.99248C14.5517 10.0885 14.5937 10.1871 14.631 10.2885L16.001 10.8185V12.0745L14.631 12.6045C14.5937 12.7058 14.5517 12.8045 14.505 12.9005L15.107 14.2085L14.239 15.0685L12.896 14.4765C12.7993 14.5211 12.7 14.5611 12.598 14.5965L12.098 15.9465H10.876L10.346 14.5735C10.2453 14.5361 10.1467 14.4941 10.05 14.4475L8.742 15.0485L7.882 14.1815L8.474 12.8385C8.42933 12.7411 8.38933 12.6415 8.354 12.5395L7.004 12.0405V10.8525L8.354 10.3525C8.38933 10.2511 8.42933 10.1518 8.474 10.0545L7.882 8.71148L8.742 7.84448L10.05 8.44548C10.146 8.39881 10.2447 8.35681 10.346 8.31948L10.876 6.94648H12.098L12.598 8.29648C12.6993 8.33181 12.7987 8.37181 12.896 8.41648ZM12.89 9.23848L12.583 9.09848C12.5079 9.06365 12.4312 9.03261 12.353 9.00548L12.018 8.88848L11.576 7.69648H11.391L10.923 8.90548L10.605 9.02348C10.5284 9.05087 10.4536 9.08293 10.381 9.11948L10.061 9.27548L8.905 8.74448L8.775 8.87748L9.298 10.0625L9.154 10.3715C9.11941 10.4473 9.08838 10.5247 9.061 10.6035L8.942 10.9345L7.754 11.3745V11.5185L8.942 11.9585L9.061 12.2885C9.089 12.3685 9.119 12.4465 9.154 12.5215L9.298 12.8305L8.774 14.0155L8.905 14.1485L10.061 13.6175L10.381 13.7735C10.4536 13.81 10.5284 13.8421 10.605 13.8695L10.923 13.9875L11.391 15.1965H11.576L12.018 14.0045L12.353 13.8875C12.433 13.8605 12.512 13.8275 12.589 13.7935L12.894 13.6555L14.074 14.1765L14.206 14.0465L13.676 12.8915L13.83 12.5735C13.8663 12.4996 13.8987 12.4238 13.927 12.3465L14.043 12.0285L15.25 11.5605V11.3325L14.043 10.8645L13.927 10.5465C13.8987 10.4691 13.8663 10.3934 13.83 10.3195L13.676 10.0015L14.206 8.84648L14.074 8.71648L12.89 9.23848ZM13 11.4465C13 11.7432 12.912 12.0332 12.7472 12.2798C12.5824 12.5265 12.3481 12.7188 12.074 12.8323C11.7999 12.9458 11.4983 12.9755 11.2074 12.9177C10.9164 12.8598 10.6491 12.7169 10.4393 12.5071C10.2296 12.2974 10.0867 12.0301 10.0288 11.7391C9.97094 11.4481 10.0006 11.1465 10.1142 10.8725C10.2277 10.5984 10.42 10.3641 10.6666 10.1993C10.9133 10.0345 11.2033 9.94648 11.5 9.94648C11.8978 9.94648 12.2794 10.1045 12.5607 10.3858C12.842 10.6671 13 11.0487 13 11.4465ZM12 10.9465H11V11.9465H12V10.9465Z" fill="#DDDDDD"/>
</svg>
