<svg width="16" height="16" viewBox="0 0 16 16" fill="none" xmlns="http://www.w3.org/2000/svg">
<path fill-rule="evenodd" clip-rule="evenodd" d="M8.5002 15.8002C12.5319 15.8002 15.8002 12.5319 15.8002 8.5002C15.8002 4.46852 12.5319 1.2002 8.5002 1.2002C4.46852 1.2002 1.2002 4.46852 1.2002 8.5002C1.2002 12.5319 4.46852 15.8002 8.5002 15.8002ZM8.5002 4.5002C9.05248 4.5002 9.5002 4.94791 9.5002 5.5002C9.5002 6.05248 9.05248 6.5002 8.5002 6.5002C7.94791 6.5002 7.5002 6.05248 7.5002 5.5002C7.5013 4.94837 7.94837 4.5013 8.5002 4.5002ZM7.0002 12.0002H8.0002V8.0002H9.0002V12.0002H10.0002V13.0002H7.0002V12.0002Z" fill="#6A6A6A"/>
</svg>
