<svg width="16" height="16" viewBox="0 0 16 16" fill="none" xmlns="http://www.w3.org/2000/svg">
<path fill-rule="evenodd" clip-rule="evenodd" d="M9.954 14.147C9.79203 13.475 9.19126 13.0011 8.5 13H7.5C6.67157 13 6 13.6716 6 14.5C6 15.3284 6.67157 16 7.5 16H8.5C9.02154 15.999 9.5048 15.7261 9.775 15.28C11.807 14.752 13.111 13.235 13.675 10.745L14.6 10.05C14.8512 9.86063 14.9992 9.56457 15 9.25V7.75C14.9989 7.4355 14.8509 7.13957 14.6 6.95L13.912 6.434C13.5509 3.41267 11.041 1.10573 8 1C4.743 1.12616 2.13438 3.74263 2.018 7H1V8H3V7.5C2.87202 4.60414 5.10508 2.14777 8 2C10.3334 2.08205 12.3139 3.73645 12.81 6.018C12.7205 6.03522 12.6337 6.06449 12.552 6.105C12.2125 6.2738 11.9985 6.62086 12 7V10C11.9985 10.3791 12.2125 10.7262 12.552 10.895C12.564 10.9 12.577 10.898 12.588 10.903C12.3009 12.3536 11.3147 13.5682 9.954 14.147ZM7 14.5C7 14.2239 7.22386 14 7.5 14H8.5C8.77614 14 9 14.2239 9 14.5C9 14.7761 8.77614 15 8.5 15H7.5C7.22386 15 7 14.7761 7 14.5ZM13 7L14 7.75V9.25L13 10V7Z" fill="#DDDDDD"/>
</svg>
