<svg width="16" height="16" viewBox="0 0 16 16" fill="none" xmlns="http://www.w3.org/2000/svg">
<g clip-path="url(#clip0_417_7589)">
<path d="M8 6.8002C7.44621 6.8002 6.90486 6.63598 6.4444 6.32831C5.98395 6.02064 5.62506 5.58334 5.41314 5.07171C5.20121 4.56008 5.14576 3.99709 5.2538 3.45394C5.36184 2.9108 5.62851 2.41188 6.0201 2.0203C6.41169 1.62871 6.9106 1.36204 7.45375 1.254C7.99689 1.14596 8.55988 1.20141 9.07151 1.41333C9.58315 1.62526 10.0204 1.98414 10.3281 2.4446C10.6358 2.90506 10.8 3.44641 10.8 4.0002C10.7992 4.74256 10.504 5.45429 9.97902 5.97922C9.45409 6.50415 8.74236 6.7994 8 6.8002ZM8 2.1332C7.63074 2.1332 7.26978 2.24269 6.96275 2.44784C6.65572 2.65299 6.41643 2.94458 6.27512 3.28573C6.13381 3.62688 6.09684 4.00227 6.16887 4.36443C6.24091 4.72659 6.41873 5.05926 6.67983 5.32036C6.94094 5.58147 7.2736 5.75928 7.63577 5.83132C7.99793 5.90336 8.37332 5.86639 8.71447 5.72508C9.05562 5.58377 9.34721 5.34447 9.55235 5.03745C9.7575 4.73042 9.867 4.36945 9.867 4.0002C9.86647 3.5052 9.6696 3.03063 9.31958 2.68061C8.96957 2.3306 8.495 2.13373 8 2.1332ZM6 14.5002C6.00264 14.3311 6.02684 14.1631 6.072 14.0002H4V11.5002C4.00079 10.8374 4.26444 10.202 4.73311 9.73331C5.20178 9.26464 5.8372 9.00099 6.5 9.0002H8.762C9.01864 8.629 9.32942 8.29834 9.684 8.0192C9.622 8.0152 9.563 8.0002 9.5 8.0002H6.5C5.57207 8.00126 4.68244 8.37034 4.0263 9.02649C3.37015 9.68264 3.00106 10.5723 3 11.5002V15.0002H6V14.5002ZM12.5 9.1002C11.8635 9.1002 11.253 9.35305 10.8029 9.80314C10.3529 10.2532 10.1 10.8637 10.1 11.5002C10.1032 11.7247 10.1382 11.9476 10.204 12.1622L8 14.5002V16.0002H10.3L12.318 13.8822C12.378 13.8862 12.438 13.9002 12.5 13.9002C12.8152 13.9002 13.1273 13.8381 13.4184 13.7175C13.7096 13.5969 13.9742 13.4201 14.1971 13.1973C14.4199 12.9744 14.5967 12.7098 14.7173 12.4186C14.8379 12.1275 14.9 11.8154 14.9 11.5002C14.9 11.185 14.8379 10.8729 14.7173 10.5818C14.5967 10.2906 14.4199 10.026 14.1971 9.80314C13.9742 9.58028 13.7096 9.4035 13.4184 9.28289C13.1273 9.16227 12.8152 9.1002 12.5 9.1002ZM12.5 13.0002C12.3285 12.9985 12.1587 12.967 11.998 12.9072L9.986 15.0002H9V14.8972L11.33 12.4272C11.1178 12.1647 11.0015 11.8377 11 11.5002C11 11.2035 11.088 10.9135 11.2528 10.6668C11.4176 10.4202 11.6519 10.2279 11.926 10.1144C12.2001 10.0008 12.5017 9.97114 12.7926 10.029C13.0836 10.0869 13.3509 10.2298 13.5607 10.4395C13.7704 10.6493 13.9133 10.9166 13.9712 11.2076C14.0291 11.4985 13.9994 11.8001 13.8858 12.0742C13.7723 12.3483 13.58 12.5826 13.3334 12.7474C13.0867 12.9122 12.7967 13.0002 12.5 13.0002ZM12 12.0002H13V11.0002H12V12.0002Z" fill="#DDDDDD"/>
</g>
<defs>
<clipPath id="clip0_417_7589">
<rect width="16" height="16" fill="white"/>
</clipPath>
</defs>
</svg>
