<svg width="16" height="16" viewBox="0 0 16 16" fill="none" xmlns="http://www.w3.org/2000/svg">
<path fill-rule="evenodd" clip-rule="evenodd" d="M3 11.5002V15.0002H13V11.5002C12.9978 9.56811 11.4321 8.0024 9.5 8.0002H6.5C4.56792 8.0024 3.0022 9.56811 3 11.5002ZM6.5 9.0002H9.5C10.88 9.00185 11.9983 10.1202 12 11.5002V14.0002H4V11.5002C4.00165 10.1202 5.11997 9.00185 6.5 9.0002ZM10.8 4.0002C10.8 2.4538 9.5464 1.2002 8 1.2002C6.4536 1.2002 5.2 2.4538 5.2 4.0002C5.2 5.54659 6.4536 6.8002 8 6.8002C9.54571 6.79854 10.7983 5.54591 10.8 4.0002ZM6.133 4.0002C6.133 2.96908 6.96888 2.1332 8 2.1332C9.03112 2.1332 9.867 2.96908 9.867 4.0002C9.867 5.03131 9.03112 5.8672 8 5.8672C6.96934 5.86609 6.1341 5.03085 6.133 4.0002Z" fill="#DDDDDD"/>
</svg>
