<svg width="24" height="26" viewBox="0 0 24 26" fill="none" xmlns="http://www.w3.org/2000/svg">
<path d="M0.750153 0.750153L3.22366 1.22752L4.36884 16.4409C4.4616 17.6808 5.39035 18.6328 6.5058 18.6328H19.4822C20.5477 18.6328 21.4515 17.7603 21.6049 16.5828L22.7334 7.88678C22.8725 6.81403 22.1269 5.854 21.1554 5.854H3.62084M14.2777 10.755H17.5753M6.3065 22.7227C6.80833 22.7227 7.21622 23.1775 7.21622 23.7371C7.21622 24.2967 6.80833 24.7502 6.3065 24.7502C5.80466 24.7502 5.39796 24.2967 5.39796 23.7371C5.39796 23.1775 5.80466 22.7227 6.3065 22.7227ZM19.6877 22.7227C20.1895 22.7227 20.5974 23.1775 20.5974 23.7371C20.5974 24.2967 20.1895 24.7502 19.6877 24.7502C19.1858 24.7502 18.7779 24.2967 18.7779 23.7371C18.7779 23.1775 19.1858 22.7227 19.6877 22.7227Z" stroke="white" stroke-width="1.5" stroke-linecap="round" stroke-linejoin="round"/>
</svg>
